<svg width="92" height="92" viewBox="0 0 92 92" fill="none" xmlns="http://www.w3.org/2000/svg">
<g filter="url(#filter0_d_203_7045)">
<rect x="17.2275" y="18.0237" width="59.1792" height="59.1792" rx="16" transform="rotate(-3.83 17.2275 18.0237)" fill="black"/>
</g>
<g filter="url(#filter1_d_203_7045)">
<rect x="17.355" y="17.8876" width="55.2339" height="55.2339" rx="6" transform="rotate(-3.83 17.355 17.8876)" fill="white"/>
<rect x="14.6936" y="15.5601" width="60.2339" height="60.2339" rx="8.5" transform="rotate(-3.83 14.6936 15.5601)" stroke="black" stroke-width="5"/>
</g>
<g clip-path="url(#clip0_203_7045)">
<path fill-rule="evenodd" clip-rule="evenodd" d="M67.0407 19.7557C68.2734 19.9648 68.0155 21.6648 68.122 22.9992C68.3087 23.3082 69.0632 23.0503 69.4747 23.1345C69.6929 23.4107 70.4709 23.1288 70.6913 23.4051C71.8158 23.2707 72.4803 23.5984 72.7169 24.352C72.8421 25.7837 71.8751 26.1206 71.2306 26.7847C70.9915 27.5366 70.6634 28.2003 70.0149 28.5406C70.3802 29.5717 71.1787 30.1678 71.5007 31.2461C71.6134 31.9916 71.471 32.7533 71.0966 33.4078C70.9903 33.4002 70.8839 33.4214 70.7885 33.469C70.6932 33.5167 70.6124 33.5892 70.5547 33.6788C69.9995 33.7523 69.4351 33.6579 68.934 33.4078C68.4593 33.252 68.3546 32.7249 67.7175 32.7332C67.412 32.8763 67.6642 33.5832 67.5813 33.9489C67.5106 34.3264 67.3832 34.651 67.3116 35.0306C66.9826 35.5565 66.8674 36.2961 66.0942 36.3834C65.1342 36.4004 65.0081 35.5774 64.7441 34.8976C64.4971 34.1951 64.3158 33.4713 64.2025 32.7354C63.3054 32.8728 63.2033 33.8066 62.0403 33.681C61.7048 33.3869 61.278 33.1822 61.364 32.4639C61.354 31.8884 61.1384 31.5188 61.23 30.8411C61.1903 30.5204 60.8648 30.9925 60.8247 31.1138C60.5694 31.1274 60.7304 31.5602 60.4184 31.517C60.2988 31.9403 59.7809 31.9621 59.6081 32.3296C58.9689 32.8333 58.2909 33.2856 57.5803 33.6823C57.366 33.6936 57.0645 33.616 57.0396 33.8171H54.4721C54.4284 33.633 54.1321 33.705 53.9305 33.6823C53.5604 33.3986 53.1507 33.1707 52.7144 33.0059C51.1378 31.5223 50.6303 28.9639 49.6062 26.9239C49.138 26.1323 48.2338 25.7741 47.3083 25.4381C45.781 25.3072 45.0392 25.9617 43.6603 25.9774C42.1579 26.5936 41.3358 27.8891 40.5503 29.2213C40.4444 29.8009 40.3995 30.3901 40.4164 30.979C40.5669 31.3233 41.4606 30.924 41.6321 31.2496C42.5733 31.2997 43.7388 31.1243 44.4706 31.384C45.4258 32.1354 44.7935 33.8904 44.876 35.3029C44.8948 35.6909 45.8033 35.1878 45.822 35.5744C46.1876 35.5401 46.5563 35.5858 46.9025 35.7083C47.588 35.8362 48.1457 36.0888 48.795 36.2498C49.268 36.5867 50.0129 36.6544 50.4174 37.0597C51.0497 37.1933 51.2705 37.7378 51.9036 37.8718C53.3725 39.2474 54.5212 40.9289 55.2684 42.7974C56.0157 44.6659 56.3433 46.6758 56.228 48.6849C56.1192 50.7605 55.7092 52.8093 55.011 54.7669C54.2508 56.4373 53.6583 58.2788 52.5796 59.6315C52.2375 60.5064 51.6082 61.0925 51.0924 61.7946C50.5012 62.419 50.0063 63.1403 49.2008 63.5514C48.6115 64.2149 47.8694 64.7249 47.0386 65.0372C46.4142 65.5844 45.3368 65.6795 44.605 66.1189C43.5944 66.2368 42.4232 66.1875 41.4968 66.3895C39.1182 66.2019 36.8447 65.9056 35.0098 65.1733C33.1998 64.4595 31.4975 63.6387 30.2779 62.3348C29.3903 61.9608 29.0277 61.0632 28.2519 60.5767C27.7588 59.8214 27.2168 59.0991 26.6295 58.4145C26.4649 57.9785 26.2378 57.5689 25.9553 57.1984C25.8453 56.7221 25.6622 56.2658 25.4124 55.8456C25.1071 54.8284 24.8813 53.7891 24.7369 52.737C24.6702 50.6424 24.9962 48.9406 25.1428 47.0608C25.345 46.6397 25.4377 46.1744 25.4124 45.708C25.6638 45.4632 25.587 44.8938 25.8191 44.6272C26.0809 43.8962 26.2263 43.0532 26.7647 42.6011C26.8991 41.6978 27.7169 41.4797 27.9804 40.7073C28.4377 40.668 28.3731 40.1091 28.7925 40.0323C29.0801 39.8241 29.2956 39.5444 29.6037 39.3559C30.0912 38.7905 30.6886 38.3303 31.3596 38.0032C31.6551 37.7897 31.9723 37.6081 32.3061 37.4616C32.6791 37.3621 33.0414 37.2262 33.3878 37.0558C34.2889 37.0558 35.3044 37.1706 35.6853 36.6518C35.4876 35.9479 35.4462 35.0896 35.2791 34.3547C35.0825 33.5551 35.0825 32.7198 35.2791 31.9203C35.828 31.1178 37.2793 31.2173 38.6582 31.2456C38.9436 30.8965 38.6761 30.0011 39.0636 29.7585C39.1151 29.1777 39.4267 28.8605 39.4694 28.271C40.4452 27.3546 41.1211 26.1398 42.0383 25.164C42.4546 25.0447 42.8287 24.8104 43.1179 24.4881C44.5845 24.2407 45.6872 23.6328 47.5793 23.8113C48.3285 24.0679 49.1694 24.2106 49.7419 24.7578C49.9732 24.9799 50.6303 25.3447 50.9576 25.7038C51.154 25.9194 51.1465 26.3213 51.4982 26.3797C52.3273 28.2997 52.9016 30.4733 54.6082 31.5144C55.1637 31.4088 55.2999 31.7239 55.8239 31.6514C56.2363 31.7492 56.2206 31.4158 56.6334 31.5144C58.3138 30.7168 59.4571 29.3832 60.5528 28.0013C60.5092 27.5531 59.9637 28.356 59.8773 27.8656C59.372 28.0109 59.4924 27.5304 59.067 27.5954C58.5097 26.8026 57.6872 26.2724 57.8508 24.7591C58.2222 24.2158 59.2101 24.0819 60.0143 24.3541C60.2002 24.1796 60.0946 23.7166 60.2827 23.5434C60.2028 23.3016 60.6807 22.9818 60.2827 22.8679C60.209 22.1165 60.3076 21.54 60.8247 21.3794C60.9813 21.4021 61.0647 21.3507 61.0939 21.2459C62.3467 21.2525 62.4291 22.4333 63.3926 22.7296C63.9599 22.1745 64.162 21.2486 64.7454 20.7027C65.4344 20.2274 66.2169 19.9046 67.0407 19.7557ZM63.7963 24.352H62.8498C62.6474 24.105 62.2677 24.0325 62.0399 23.8104C61.9557 23.6669 61.4748 22.9482 61.4993 23.5412C61.9164 24.3982 61.9753 26.3051 60.6881 26.2436C60.662 26.3703 60.6737 26.5018 60.7217 26.6219C60.7697 26.742 60.8519 26.8453 60.9582 26.9191C61.1349 27.2551 60.5624 27.4789 60.9582 27.5946C61.4277 26.94 62.4802 26.8637 63.6636 26.9191C64.3448 27.3651 65.0251 27.8102 65.1512 28.8129C65.0768 29.0555 64.9361 29.2725 64.745 29.4394C64.5538 29.6064 64.3199 29.7166 64.0695 29.7576C63.6209 29.6664 63.2434 29.5015 63.1239 29.0817C62.9035 29.0323 62.6738 29.0439 62.4596 29.1153C62.2454 29.1868 62.0547 29.3153 61.9081 29.4871C62.0391 29.9392 62.3371 30.2289 62.4475 30.7037C62.4541 31.299 62.5449 31.8905 62.7172 32.4605C63.4856 32.4605 63.7051 31.9159 64.6105 32.0564C64.6393 32.1607 64.7244 32.2117 64.8802 32.1899C65.0884 33.1063 65.684 33.6395 66.0959 34.3539C66.2233 33.6155 66.606 32.9453 67.1772 32.4605C67.1572 32.1249 67.1537 31.8059 67.4478 31.7841C68.0766 31.4957 68.7717 31.8823 69.4765 31.9194C69.226 30.9088 68.3685 30.5047 68.5291 29.083C68.4571 28.6052 69.0091 28.7514 68.9358 28.2714C68.2341 27.3629 69.2142 26.1144 69.4765 25.2989C68.627 25.165 67.7659 25.12 66.9071 25.1645C66.6667 24.8189 66.3272 24.5728 66.2316 24.0827V21.7844C66.3076 21.7844 66.3865 21.6753 66.2316 21.6483C65.0879 22.2182 65.187 24.0286 63.7963 24.3502V24.352ZM28.9278 43.5437C28.7297 43.6257 28.9404 43.7073 28.9278 43.5437C29.667 43.02 30.308 42.4026 31.0891 41.9226C31.549 41.748 31.8711 41.4426 32.3057 41.2458C32.6028 41.1249 33.37 40.6986 33.5218 41.2458C33.1238 42.3323 32.2633 42.9603 31.6302 43.8142C30.7845 44.4544 30.1775 45.3349 29.3327 45.9768C29.3327 46.4276 28.8924 46.4376 28.9278 46.9207C28.7266 46.9643 28.3457 47.4906 28.6559 47.5984C28.8545 46.9853 29.4444 46.7623 29.7372 46.2456C30.1915 45.9362 30.438 45.4166 31.3592 45.571C31.4814 45.8102 31.6856 45.9637 31.765 46.2456C31.0668 47.3064 30.1295 48.1264 29.6033 49.3552C28.856 50.4692 28.3068 51.7039 27.98 53.0049C28.5874 52.9347 28.5346 52.2055 28.9278 51.9236C29.1617 51.5261 29.3266 51.0605 29.7372 50.841C29.7992 50.2737 30.3774 50.2192 30.5493 49.7614C30.9355 49.5144 31.1484 49.099 31.902 49.2194C32.1682 50.2309 31.4124 51.2049 31.2261 52.1933C30.6588 52.9351 30.5764 54.1569 30.01 54.8987C30.068 55.6331 29.4999 56.309 29.8747 56.9261C30.3743 57.0203 30.1077 56.3479 30.4149 56.2514C30.3809 55.8539 30.7204 55.8338 30.685 55.4389C31.2004 55.188 31.1157 54.3384 31.6315 54.0862C31.7401 53.4295 32.245 53.1672 32.4422 52.5995C32.8079 52.2439 32.9659 51.6805 33.6597 51.6522C34.4705 51.9646 33.843 53.1546 33.7937 53.8152C33.5798 54.0522 33.6126 54.5366 33.5231 54.897C33.4062 55.0624 33.0937 55.7104 33.3887 55.843C33.7688 55.2321 34.1131 54.5845 35.0107 54.4903C35.4069 54.5003 35.5121 54.7997 35.6862 55.0318C35.7727 55.5755 35.7263 56.132 35.5509 56.6538C35.3724 57.105 35.4318 57.797 35.1451 58.14C35.2123 58.7317 35.7089 57.7002 36.2268 57.8699C37.6232 58.6593 36.2539 60.5462 36.2268 61.9255C36.6872 61.9595 36.8753 62.2658 37.4425 62.1956C37.779 61.4058 37.7323 60.232 38.9292 60.3035C39.4298 60.3908 39.342 61.0619 39.3355 61.6541C39.1378 61.7374 39.3481 61.8177 39.3355 61.6541C39.5122 61.6069 39.5467 61.4158 39.7404 61.3844C40.3116 61.7902 39.2639 62.9911 40.0105 63.1416C40.6577 63.2917 40.6337 62.7733 40.686 62.3304C40.8815 62.0444 41.0196 61.7231 41.0927 61.3844C41.5662 60.9572 41.5985 60.0875 42.7142 60.3035C43.1017 61.3508 42.4009 62.2763 42.4455 63.4113C42.9082 63.3234 43.3605 63.1876 43.7951 63.0059C43.802 62.526 43.9427 62.0575 44.2014 61.6532C44.4763 61.3914 44.4833 60.8568 45.0108 60.842C45.7688 60.9293 45.133 62.0485 45.4167 62.3296C46.2458 61.5816 47.4039 61.1632 48.2552 60.4366C49.1607 59.7659 49.837 58.8657 50.6875 58.1392C50.9401 57.4008 51.5074 56.9762 51.7697 56.2488C52.1371 55.6689 52.3679 54.9533 52.7153 54.3554C53.2529 52.908 53.6599 51.4154 53.9314 49.8954C53.9623 48.677 53.9172 47.4579 53.7962 46.2452C53.3598 45.5125 53.2132 44.4871 52.7153 43.8138C52.4665 42.8913 51.8774 42.3083 51.4991 41.5163C50.8245 41.0656 50.2834 40.4795 49.607 40.0288C48.887 39.6666 48.3316 39.1412 47.5801 38.8131C46.8417 38.3354 46.0137 38.0133 45.1465 37.8666C44.4558 37.4739 43.4251 37.4254 42.9835 36.7848C42.9983 35.9422 43.2086 35.2973 43.1187 34.3534C42.8904 34.044 42.6173 33.7703 42.3084 33.5414H37.4412C37.391 34.1523 37.2641 34.5489 37.5778 35.0289C37.974 34.4346 38.9742 34.4459 39.7391 34.2164C39.9503 34.4115 40.2091 34.5585 40.2802 34.8936C40.0737 35.4504 39.7513 35.9568 39.3342 36.3794C38.8978 36.7552 38.7761 37.4433 38.2524 37.7322C38.1713 37.9661 37.6114 37.7221 37.5778 38.0032C37.5564 38.2523 37.1183 38.0861 37.0367 38.2737H36.0907C35.5544 38.6385 34.7 38.6856 34.1969 39.0836C33.4153 39.2014 32.9703 39.6579 32.3057 39.8961C31.3631 40.7099 30.3691 41.4718 29.4693 42.3275C29.3855 42.8311 28.9601 42.9895 28.9278 43.5437Z" fill="black"/>
</g>
<rect x="0.18457" y="91.0835" width="2.23903" height="23.5129" transform="rotate(-90 0.18457 91.0835)" fill="#434343"/>
<rect x="2.58398" y="89.9636" width="2.39928" height="21.9425" transform="rotate(-180 2.58398 89.9636)" fill="#434343"/>
<rect x="0.18457" y="0.0834961" width="2.39928" height="21.9425" fill="#434343"/>
<rect x="1.38428" y="2.32251" width="2.23903" height="23.5129" transform="rotate(-90 1.38428 2.32251)" fill="#434343"/>
<rect x="91.1846" y="0.0834961" width="2.23903" height="23.5129" transform="rotate(90 91.1846 0.0834961)" fill="#434343"/>
<rect x="88.7852" y="1.20288" width="2.39928" height="21.9425" fill="#434343"/>
<rect x="91.1846" y="91.0001" width="2.39928" height="21.9425" transform="rotate(-180 91.1846 91.0001)" fill="#434343"/>
<rect x="89.9854" y="88.761" width="2.23903" height="23.5129" transform="rotate(90 89.9854 88.761)" fill="#434343"/>
<defs>
<filter id="filter0_d_203_7045" x="14.2598" y="15.1031" width="68.9355" height="68.9352" filterUnits="userSpaceOnUse" color-interpolation-filters="sRGB">
<feFlood flood-opacity="0" result="BackgroundImageFix"/>
<feColorMatrix in="SourceAlpha" type="matrix" values="0 0 0 0 0 0 0 0 0 0 0 0 0 0 0 0 0 0 127 0" result="hardAlpha"/>
<feOffset dy="4"/>
<feGaussianBlur stdDeviation="2"/>
<feComposite in2="hardAlpha" operator="out"/>
<feColorMatrix type="matrix" values="0 0 0 0 0 0 0 0 0 0 0 0 0 0 0 0 0 0 0.25 0"/>
<feBlend mode="normal" in2="BackgroundImageFix" result="effect1_dropShadow_203_7045"/>
<feBlend mode="normal" in="SourceGraphic" in2="effect1_dropShadow_203_7045" result="shape"/>
</filter>
<filter id="filter1_d_203_7045" x="8.7417" y="9.58508" width="76.0264" height="76.0261" filterUnits="userSpaceOnUse" color-interpolation-filters="sRGB">
<feFlood flood-opacity="0" result="BackgroundImageFix"/>
<feColorMatrix in="SourceAlpha" type="matrix" values="0 0 0 0 0 0 0 0 0 0 0 0 0 0 0 0 0 0 127 0" result="hardAlpha"/>
<feOffset dy="4"/>
<feGaussianBlur stdDeviation="2"/>
<feComposite in2="hardAlpha" operator="out"/>
<feColorMatrix type="matrix" values="0 0 0 0 0 0 0 0 0 0 0 0 0 0 0 0 0 0 0.25 0"/>
<feBlend mode="normal" in2="BackgroundImageFix" result="effect1_dropShadow_203_7045"/>
<feBlend mode="normal" in="SourceGraphic" in2="effect1_dropShadow_203_7045" result="shape"/>
</filter>
<clipPath id="clip0_203_7045">
<rect width="48" height="48" fill="white" transform="translate(24.7275 19.0707)"/>
</clipPath>
</defs>
</svg>
