<svg width="423" height="87" viewBox="0 0 423 87" fill="none" xmlns="http://www.w3.org/2000/svg">
<path d="M23 54.375V29H44.75V32.625H48.375V39.875H44.75V43.5H48.375V50.75H44.75V54.375H23ZM30.25 39.875H41.125V32.625H30.25V39.875ZM30.25 50.75H41.125V43.5H30.25V50.75ZM55.625 54.375V50.75H52V32.625H55.625V29H73.75V32.625H77.375V50.75H73.75V54.375H55.625ZM59.25 50.75H70.125V32.625H59.25V50.75ZM81 54.375V29H88.25V32.625H91.875V36.25H95.5V32.625H99.125V29H106.375V54.375H99.125V39.875H95.5V47.125H91.875V39.875H88.25V54.375H81ZM110 54.375V29H131.75V32.625H135.375V39.875H131.75V43.5H135.375V50.75H131.75V54.375H110ZM117.25 39.875H128.125V32.625H117.25V39.875ZM117.25 50.75H128.125V43.5H117.25V50.75ZM139 54.375V29H164.375V32.625H146.25V39.875H160.75V43.5H146.25V50.75H164.375V54.375H139ZM168 54.375V29H189.75V32.625H193.375V43.5H186.125V47.125H189.75V50.75H193.375V54.375H182.5V50.75H178.875V47.125H175.25V54.375H168ZM175.25 43.5H182.5V39.875H186.125V32.625H175.25V43.5ZM197 54.375V29H204.25V32.625H207.875V36.25H211.5V32.625H215.125V29H222.375V54.375H215.125V39.875H211.5V47.125H207.875V39.875H204.25V54.375H197ZM226 54.375V36.25H229.625V32.625H233.25V29H244.125V32.625H247.75V36.25H251.375V54.375H244.125V47.125H233.25V54.375H226ZM233.25 43.5H244.125V36.25H240.5V32.625H236.875V36.25H233.25V43.5ZM255 54.375V29H262.25V32.625H265.875V36.25H269.5V39.875H273.125V29H280.375V54.375H273.125V47.125H269.5V43.5H265.875V39.875H262.25V54.375H255ZM313 54.375V29H331.125V32.625H334.75V36.25H338.375V47.125H334.75V50.75H331.125V54.375H313ZM320.25 50.75H327.5V47.125H331.125V36.25H327.5V32.625H320.25V50.75ZM345.625 54.375V50.75H342V32.625H345.625V29H363.75V32.625H367.375V50.75H363.75V54.375H345.625ZM349.25 50.75H360.125V32.625H349.25V50.75ZM371 54.375V29H378.25V32.625H381.875V36.25H385.5V32.625H389.125V29H396.375V54.375H389.125V39.875H385.5V47.125H381.875V39.875H378.25V54.375H371Z" fill="black"/>
<rect y="86.0834" width="2.24108" height="21.9626" transform="rotate(-90 0 86.0834)" fill="#434343"/>
<rect x="2.24121" y="84.9626" width="2.24108" height="21.9626" transform="rotate(-180 2.24121 84.9626)" fill="#434343"/>
<rect width="2.24108" height="21.9626" fill="#434343"/>
<rect x="1.12061" y="2.24103" width="2.24108" height="21.9626" transform="rotate(-90 1.12061 2.24103)" fill="#434343"/>
<rect x="423" width="2.24108" height="21.9626" transform="rotate(90 423 0)" fill="#434343"/>
<rect x="420.759" y="1.12042" width="2.24108" height="21.9626" fill="#434343"/>
<rect x="423" y="86" width="2.24108" height="21.9626" transform="rotate(-180 423 86)" fill="#434343"/>
<rect x="421.88" y="83.7588" width="2.24108" height="21.9626" transform="rotate(90 421.88 83.7588)" fill="#434343"/>
</svg>
