<svg width="339" height="64" viewBox="0 0 339 64" fill="none" xmlns="http://www.w3.org/2000/svg">
<path d="M9.432 28.366H3.402V32.668H8.73V33.73H3.402V38.5H1.8V27.304H9.432V28.366ZM18.1568 36.88V31.39C18.1568 31.162 18.1208 31.012 18.0488 30.94C17.9888 30.868 17.8388 30.832 17.5988 30.832H13.4948C13.2548 30.832 13.0988 30.868 13.0268 30.94C12.9668 31.012 12.9368 31.162 12.9368 31.39V36.88C12.9368 37.12 12.9668 37.276 13.0268 37.348C13.0988 37.408 13.2548 37.438 13.4948 37.438H17.5988C17.8388 37.438 17.9888 37.408 18.0488 37.348C18.1208 37.276 18.1568 37.12 18.1568 36.88ZM12.8288 29.77H18.2648C19.2128 29.77 19.6868 30.244 19.6868 31.192V37.078C19.6868 38.026 19.2128 38.5 18.2648 38.5H12.8288C11.8808 38.5 11.4068 38.026 11.4068 37.078V31.192C11.4068 30.244 11.8808 29.77 12.8288 29.77ZM25.7009 29.77H27.5729V30.868H25.4669C24.6869 30.868 24.2969 31.318 24.2969 32.218V38.5H22.7489V29.77H24.2969V30.868C24.4889 30.136 24.9569 29.77 25.7009 29.77ZM36.2413 37.438H40.2013C40.4173 37.438 40.5733 37.39 40.6693 37.294C40.7653 37.198 40.8133 37.036 40.8133 36.808V31.462C40.8133 31.234 40.7653 31.072 40.6693 30.976C40.5733 30.88 40.4173 30.832 40.2013 30.832H36.2413C36.0133 30.832 35.8633 30.868 35.7913 30.94C35.7193 31.012 35.6833 31.162 35.6833 31.39V36.88C35.6833 37.12 35.7193 37.276 35.7913 37.348C35.8633 37.408 36.0133 37.438 36.2413 37.438ZM40.8133 29.77H42.3613V38.5H40.8133V37.924C40.6573 38.308 40.3273 38.5 39.8233 38.5H35.5573C34.6093 38.5 34.1353 38.026 34.1353 37.078V31.192C34.1353 30.244 34.6093 29.77 35.5573 29.77H39.8233C40.3273 29.77 40.6573 29.962 40.8133 30.346V29.77ZM57.2179 36.88V31.39C57.2179 31.162 57.1819 31.012 57.1099 30.94C57.0499 30.868 56.8999 30.832 56.6599 30.832H52.7179C52.5019 30.832 52.3459 30.88 52.2499 30.976C52.1539 31.072 52.1059 31.234 52.1059 31.462V32.074H52.0879V36.376H52.1059V36.808C52.1059 37.036 52.1539 37.198 52.2499 37.294C52.3459 37.39 52.5019 37.438 52.7179 37.438H56.6599C56.8999 37.438 57.0499 37.408 57.1099 37.348C57.1819 37.276 57.2179 37.12 57.2179 36.88ZM53.0959 29.77H57.3439C58.2919 29.77 58.7659 30.244 58.7659 31.192V37.078C58.7659 38.026 58.2919 38.5 57.3439 38.5H53.0959C52.5559 38.5 52.2199 38.29 52.0879 37.87V38.5H50.5399V26.458H52.0879V30.4C52.2199 29.98 52.5559 29.77 53.0959 29.77ZM63.1931 33.496H68.5211V31.39C68.5211 31.162 68.4851 31.012 68.4131 30.94C68.3411 30.868 68.1911 30.832 67.9631 30.832H63.7511C63.5231 30.832 63.3731 30.868 63.3011 30.94C63.2291 31.012 63.1931 31.162 63.1931 31.39V33.496ZM63.0671 29.77H68.6291C69.5771 29.77 70.0511 30.244 70.0511 31.192V34.558H63.1931V36.88C63.1931 37.12 63.2291 37.276 63.3011 37.348C63.3731 37.408 63.5231 37.438 63.7511 37.438H67.9091C68.1491 37.438 68.2991 37.408 68.3591 37.348C68.4311 37.276 68.4671 37.12 68.4671 36.88V36.034H69.9971V37.078C69.9971 38.026 69.5231 38.5 68.5751 38.5H63.0671C62.1191 38.5 61.6451 38.026 61.6451 37.078V31.192C61.6451 30.244 62.1191 29.77 63.0671 29.77ZM77.1825 30.832H74.9865V36.79C74.9865 37.018 75.0225 37.168 75.0945 37.24C75.1665 37.312 75.3165 37.348 75.5445 37.348H77.1645V38.5H74.8605C73.9125 38.5 73.4385 38.026 73.4385 37.078V30.832H72.0345V29.77H73.4385V28.258H74.9865V29.77H77.1825V30.832ZM83.7743 30.832H81.5783V36.79C81.5783 37.018 81.6143 37.168 81.6863 37.24C81.7583 37.312 81.9083 37.348 82.1363 37.348H83.7563V38.5H81.4523C80.5043 38.5 80.0303 38.026 80.0303 37.078V30.832H78.6263V29.77H80.0303V28.258H81.5783V29.77H83.7743V30.832ZM87.486 33.496H92.814V31.39C92.814 31.162 92.778 31.012 92.706 30.94C92.634 30.868 92.484 30.832 92.256 30.832H88.044C87.816 30.832 87.666 30.868 87.594 30.94C87.522 31.012 87.486 31.162 87.486 31.39V33.496ZM87.36 29.77H92.922C93.87 29.77 94.344 30.244 94.344 31.192V34.558H87.486V36.88C87.486 37.12 87.522 37.276 87.594 37.348C87.666 37.408 87.816 37.438 88.044 37.438H92.202C92.442 37.438 92.592 37.408 92.652 37.348C92.724 37.276 92.76 37.12 92.76 36.88V36.034H94.29V37.078C94.29 38.026 93.816 38.5 92.868 38.5H87.36C86.412 38.5 85.938 38.026 85.938 37.078V31.192C85.938 30.244 86.412 29.77 87.36 29.77ZM100.179 29.77H102.051V30.868H99.9454C99.1654 30.868 98.7754 31.318 98.7754 32.218V38.5H97.2274V29.77H98.7754V30.868C98.9674 30.136 99.4354 29.77 100.179 29.77ZM110.162 33.496H115.49V31.39C115.49 31.162 115.454 31.012 115.382 30.94C115.31 30.868 115.16 30.832 114.932 30.832H110.72C110.492 30.832 110.342 30.868 110.27 30.94C110.198 31.012 110.162 31.162 110.162 31.39V33.496ZM110.036 29.77H115.598C116.546 29.77 117.02 30.244 117.02 31.192V34.558H110.162V36.88C110.162 37.12 110.198 37.276 110.27 37.348C110.342 37.408 110.492 37.438 110.72 37.438H114.878C115.118 37.438 115.268 37.408 115.328 37.348C115.4 37.276 115.436 37.12 115.436 36.88V36.034H116.966V37.078C116.966 38.026 116.492 38.5 115.544 38.5H110.036C109.088 38.5 108.614 38.026 108.614 37.078V31.192C108.614 30.244 109.088 29.77 110.036 29.77ZM124.709 34.108L128.507 38.5H126.743L123.755 35.062L120.659 38.5H118.895L122.855 34.144L119.111 29.77H120.929L123.827 33.226L126.797 29.77H128.579L124.709 34.108ZM137.589 36.88V31.39C137.589 31.162 137.553 31.012 137.481 30.94C137.421 30.868 137.271 30.832 137.031 30.832H132.891C132.675 30.832 132.519 30.88 132.423 30.976C132.327 31.072 132.279 31.234 132.279 31.462V36.808C132.279 37.036 132.327 37.198 132.423 37.294C132.519 37.39 132.675 37.438 132.891 37.438H137.031C137.271 37.438 137.421 37.408 137.481 37.348C137.553 37.276 137.589 37.12 137.589 36.88ZM133.269 29.77H137.715C138.663 29.77 139.137 30.244 139.137 31.192V37.078C139.137 38.026 138.663 38.5 137.715 38.5H133.269C132.765 38.5 132.435 38.308 132.279 37.924V41.038H130.731V29.77H132.279V30.346C132.435 29.962 132.765 29.77 133.269 29.77ZM143.56 33.496H148.888V31.39C148.888 31.162 148.852 31.012 148.78 30.94C148.708 30.868 148.558 30.832 148.33 30.832H144.118C143.89 30.832 143.74 30.868 143.668 30.94C143.596 31.012 143.56 31.162 143.56 31.39V33.496ZM143.434 29.77H148.996C149.944 29.77 150.418 30.244 150.418 31.192V34.558H143.56V36.88C143.56 37.12 143.596 37.276 143.668 37.348C143.74 37.408 143.89 37.438 144.118 37.438H148.276C148.516 37.438 148.666 37.408 148.726 37.348C148.798 37.276 148.834 37.12 148.834 36.88V36.034H150.364V37.078C150.364 38.026 149.89 38.5 148.942 38.5H143.434C142.486 38.5 142.012 38.026 142.012 37.078V31.192C142.012 30.244 142.486 29.77 143.434 29.77ZM156.254 29.77H158.126V30.868H156.02C155.24 30.868 154.85 31.318 154.85 32.218V38.5H153.302V29.77H154.85V30.868C155.042 30.136 155.51 29.77 156.254 29.77ZM161.657 38.5H160.109V29.77H161.657V38.5ZM160.073 27.988V26.44H161.711V27.988H160.073ZM166.447 33.496H171.775V31.39C171.775 31.162 171.739 31.012 171.667 30.94C171.595 30.868 171.445 30.832 171.217 30.832H167.005C166.777 30.832 166.627 30.868 166.555 30.94C166.483 31.012 166.447 31.162 166.447 31.39V33.496ZM166.321 29.77H171.883C172.831 29.77 173.305 30.244 173.305 31.192V34.558H166.447V36.88C166.447 37.12 166.483 37.276 166.555 37.348C166.627 37.408 166.777 37.438 167.005 37.438H171.163C171.403 37.438 171.553 37.408 171.613 37.348C171.685 37.276 171.721 37.12 171.721 36.88V36.034H173.251V37.078C173.251 38.026 172.777 38.5 171.829 38.5H166.321C165.373 38.5 164.899 38.026 164.899 37.078V31.192C164.899 30.244 165.373 29.77 166.321 29.77ZM178.744 29.77H182.992C183.94 29.77 184.414 30.244 184.414 31.192V38.5H182.866V31.39C182.866 31.162 182.83 31.012 182.758 30.94C182.698 30.868 182.548 30.832 182.308 30.832H178.366C178.15 30.832 177.994 30.88 177.898 30.976C177.802 31.072 177.754 31.234 177.754 31.462V32.056H177.736V38.5H176.188V29.77H177.736V30.4C177.868 29.98 178.204 29.77 178.744 29.77ZM195.322 32.614H193.774V31.39C193.774 31.162 193.738 31.012 193.666 30.94C193.594 30.868 193.444 30.832 193.216 30.832H189.4C189.172 30.832 189.022 30.868 188.95 30.94C188.878 31.012 188.842 31.162 188.842 31.39V36.88C188.842 37.12 188.878 37.276 188.95 37.348C189.022 37.408 189.172 37.438 189.4 37.438H193.216C193.444 37.438 193.594 37.408 193.666 37.348C193.738 37.276 193.774 37.12 193.774 36.88V35.656H195.322V37.078C195.322 38.026 194.848 38.5 193.9 38.5H188.716C187.768 38.5 187.294 38.026 187.294 37.078V31.192C187.294 30.244 187.768 29.77 188.716 29.77H193.9C194.848 29.77 195.322 30.244 195.322 31.192V32.614ZM199.388 33.496H204.716V31.39C204.716 31.162 204.68 31.012 204.608 30.94C204.536 30.868 204.386 30.832 204.158 30.832H199.946C199.718 30.832 199.568 30.868 199.496 30.94C199.424 31.012 199.388 31.162 199.388 31.39V33.496ZM199.262 29.77H204.824C205.772 29.77 206.246 30.244 206.246 31.192V34.558H199.388V36.88C199.388 37.12 199.424 37.276 199.496 37.348C199.568 37.408 199.718 37.438 199.946 37.438H204.104C204.344 37.438 204.494 37.408 204.554 37.348C204.626 37.276 204.662 37.12 204.662 36.88V36.034H206.192V37.078C206.192 38.026 205.718 38.5 204.77 38.5H199.262C198.314 38.5 197.84 38.026 197.84 37.078V31.192C197.84 30.244 198.314 29.77 199.262 29.77ZM220.927 36.88V31.39C220.927 31.162 220.891 31.012 220.819 30.94C220.759 30.868 220.609 30.832 220.369 30.832H216.229C216.013 30.832 215.857 30.88 215.761 30.976C215.665 31.072 215.617 31.234 215.617 31.462V36.808C215.617 37.036 215.665 37.198 215.761 37.294C215.857 37.39 216.013 37.438 216.229 37.438H220.369C220.609 37.438 220.759 37.408 220.819 37.348C220.891 37.276 220.927 37.12 220.927 36.88ZM216.607 29.77H221.053C222.001 29.77 222.475 30.244 222.475 31.192V37.078C222.475 38.026 222.001 38.5 221.053 38.5H216.607C216.103 38.5 215.773 38.308 215.617 37.924V41.038H214.069V29.77H215.617V30.346C215.773 29.962 216.103 29.77 216.607 29.77ZM228.482 29.77H230.354V30.868H228.248C227.468 30.868 227.078 31.318 227.078 32.218V38.5H225.53V29.77H227.078V30.868C227.27 30.136 227.738 29.77 228.482 29.77ZM233.525 33.496H238.853V31.39C238.853 31.162 238.817 31.012 238.745 30.94C238.673 30.868 238.523 30.832 238.295 30.832H234.083C233.855 30.832 233.705 30.868 233.633 30.94C233.561 31.012 233.525 31.162 233.525 31.39V33.496ZM233.399 29.77H238.961C239.909 29.77 240.383 30.244 240.383 31.192V34.558H233.525V36.88C233.525 37.12 233.561 37.276 233.633 37.348C233.705 37.408 233.855 37.438 234.083 37.438H238.241C238.481 37.438 238.631 37.408 238.691 37.348C238.763 37.276 238.799 37.12 238.799 36.88V36.034H240.329V37.078C240.329 38.026 239.855 38.5 238.907 38.5H233.399C232.451 38.5 231.977 38.026 231.977 37.078V31.192C231.977 30.244 232.451 29.77 233.399 29.77ZM249.224 36.898V35.242C249.224 35.014 249.188 34.864 249.116 34.792C249.056 34.72 248.906 34.684 248.666 34.684H244.508C243.56 34.684 243.086 34.21 243.086 33.262V31.192C243.086 30.244 243.56 29.77 244.508 29.77H249.296C250.244 29.77 250.718 30.244 250.718 31.192V32.128H249.206V31.372C249.206 31.132 249.17 30.982 249.098 30.922C249.026 30.85 248.876 30.814 248.648 30.814H245.174C244.934 30.814 244.778 30.85 244.706 30.922C244.646 30.982 244.616 31.132 244.616 31.372V33.064C244.616 33.304 244.646 33.46 244.706 33.532C244.778 33.592 244.934 33.622 245.174 33.622H249.332C250.28 33.622 250.754 34.096 250.754 35.044V37.078C250.754 38.026 250.28 38.5 249.332 38.5H244.544C243.596 38.5 243.122 38.026 243.122 37.078V36.142H244.652V36.898C244.652 37.126 244.682 37.276 244.742 37.348C244.814 37.42 244.97 37.456 245.21 37.456H248.666C248.906 37.456 249.056 37.42 249.116 37.348C249.188 37.276 249.224 37.126 249.224 36.898ZM259.596 36.898V35.242C259.596 35.014 259.56 34.864 259.488 34.792C259.428 34.72 259.278 34.684 259.038 34.684H254.88C253.932 34.684 253.458 34.21 253.458 33.262V31.192C253.458 30.244 253.932 29.77 254.88 29.77H259.668C260.616 29.77 261.09 30.244 261.09 31.192V32.128H259.578V31.372C259.578 31.132 259.542 30.982 259.47 30.922C259.398 30.85 259.248 30.814 259.02 30.814H255.546C255.306 30.814 255.15 30.85 255.078 30.922C255.018 30.982 254.988 31.132 254.988 31.372V33.064C254.988 33.304 255.018 33.46 255.078 33.532C255.15 33.592 255.306 33.622 255.546 33.622H259.704C260.652 33.622 261.126 34.096 261.126 35.044V37.078C261.126 38.026 260.652 38.5 259.704 38.5H254.916C253.968 38.5 253.494 38.026 253.494 37.078V36.142H255.024V36.898C255.024 37.126 255.054 37.276 255.114 37.348C255.186 37.42 255.342 37.456 255.582 37.456H259.038C259.278 37.456 259.428 37.42 259.488 37.348C259.56 37.276 259.596 37.126 259.596 36.898ZM273.844 27.592H271.81C271.582 27.592 271.432 27.628 271.36 27.7C271.288 27.772 271.252 27.922 271.252 28.15V29.77H273.844V30.832H271.252V38.5H269.704V30.832H268.408V29.77H269.704V27.88C269.704 26.932 270.178 26.458 271.126 26.458H273.844V27.592ZM278.417 27.304V38.5H276.833V28.366H274.565V27.304H278.417ZM284.429 27.304V38.5H282.845V28.366H280.577V27.304H284.429Z" fill="black"/>
<mask id="mask0_36_300" style="mask-type:luminance" maskUnits="userSpaceOnUse" x="296" y="21" width="22" height="22">
<path d="M317.667 21.3334H296.333V42.6667H317.667V21.3334Z" fill="white"/>
</mask>
<g mask="url(#mask0_36_300)">
<path d="M299.889 29.3335V26.6668C299.889 25.685 300.685 24.889 301.667 24.889H304.333" stroke="#292929" stroke-width="2.13333" stroke-linecap="round" stroke-linejoin="round"/>
<path d="M314.111 34.6669V37.3335C314.111 38.3153 313.315 39.1113 312.333 39.1113H309.667" stroke="#292929" stroke-width="2.13333" stroke-linecap="round" stroke-linejoin="round"/>
<path d="M309.667 24.889H312.333C313.315 24.889 314.111 25.685 314.111 26.6668V29.3335" stroke="#292929" stroke-width="2.13333" stroke-linecap="round" stroke-linejoin="round"/>
<path d="M304.333 39.1113H301.667C300.685 39.1113 299.889 38.3153 299.889 37.3335V34.6669" stroke="#292929" stroke-width="2.13333" stroke-linecap="round" stroke-linejoin="round"/>
</g>
</svg>
