<svg width="77" height="77" viewBox="0 0 77 77" fill="none" xmlns="http://www.w3.org/2000/svg">
<g filter="url(#filter0_d_348_13)">
<rect x="9.22754" y="9.02368" width="59.1792" height="59.1792" rx="16" transform="rotate(-3.83 9.22754 9.02368)" fill="black"/>
</g>
<g filter="url(#filter1_d_348_13)">
<rect x="9.35498" y="8.88757" width="55.2339" height="55.2339" rx="6" transform="rotate(-3.83 9.35498 8.88757)" fill="white"/>
<rect x="6.69357" y="6.56015" width="60.2339" height="60.2339" rx="8.5" transform="rotate(-3.83 6.69357 6.56015)" stroke="black" stroke-width="5"/>
</g>
<g clip-path="url(#clip0_348_13)">
<path fill-rule="evenodd" clip-rule="evenodd" d="M59.0407 10.7557C60.2734 10.9648 60.0155 12.6648 60.122 13.9992C60.3087 14.3082 61.0632 14.0503 61.4747 14.1345C61.6929 14.4107 62.4709 14.1288 62.6913 14.4051C63.8158 14.2707 64.4803 14.5984 64.7169 15.352C64.8421 16.7837 63.8751 17.1206 63.2306 17.7847C62.9915 18.5366 62.6634 19.2003 62.0149 19.5406C62.3802 20.5717 63.1787 21.1678 63.5007 22.2461C63.6134 22.9916 63.471 23.7533 63.0966 24.4078C62.9903 24.4002 62.8839 24.4214 62.7885 24.469C62.6932 24.5167 62.6124 24.5892 62.5547 24.6788C61.9995 24.7523 61.4351 24.6579 60.934 24.4078C60.4593 24.252 60.3546 23.7249 59.7175 23.7332C59.412 23.8763 59.6642 24.5832 59.5813 24.9489C59.5106 25.3264 59.3832 25.651 59.3116 26.0306C58.9826 26.5565 58.8674 27.2961 58.0942 27.3834C57.1342 27.4004 57.0081 26.5774 56.7441 25.8976C56.4971 25.1951 56.3158 24.4713 56.2025 23.7354C55.3054 23.8728 55.2033 24.8066 54.0403 24.681C53.7048 24.3869 53.278 24.1822 53.364 23.4639C53.354 22.8884 53.1384 22.5188 53.23 21.8411C53.1903 21.5204 52.8648 21.9925 52.8247 22.1138C52.5694 22.1274 52.7304 22.5602 52.4184 22.517C52.2988 22.9403 51.7809 22.9621 51.6081 23.3296C50.9689 23.8333 50.2909 24.2856 49.5803 24.6823C49.366 24.6936 49.0645 24.616 49.0396 24.8171H46.4721C46.4284 24.633 46.1321 24.705 45.9305 24.6823C45.5604 24.3986 45.1507 24.1707 44.7144 24.0059C43.1378 22.5223 42.6303 19.9639 41.6062 17.9239C41.138 17.1323 40.2338 16.7741 39.3083 16.4381C37.781 16.3072 37.0392 16.9617 35.6603 16.9774C34.1579 17.5936 33.3358 18.8891 32.5503 20.2213C32.4444 20.8009 32.3995 21.3901 32.4164 21.979C32.5669 22.3233 33.4606 21.924 33.6321 22.2496C34.5733 22.2997 35.7388 22.1243 36.4706 22.384C37.4258 23.1354 36.7935 24.8904 36.876 26.3029C36.8948 26.6909 37.8033 26.1878 37.822 26.5744C38.1876 26.5401 38.5563 26.5858 38.9025 26.7083C39.588 26.8362 40.1457 27.0888 40.795 27.2498C41.268 27.5867 42.0129 27.6544 42.4174 28.0597C43.0497 28.1933 43.2705 28.7378 43.9036 28.8718C45.3725 30.2474 46.5212 31.9289 47.2684 33.7974C48.0157 35.6659 48.3433 37.6758 48.228 39.6849C48.1192 41.7605 47.7092 43.8093 47.011 45.7669C46.2508 47.4373 45.6583 49.2788 44.5796 50.6315C44.2375 51.5064 43.6082 52.0925 43.0924 52.7946C42.5012 53.419 42.0063 54.1403 41.2008 54.5514C40.6115 55.2149 39.8694 55.7249 39.0386 56.0372C38.4142 56.5844 37.3368 56.6795 36.605 57.1189C35.5944 57.2368 34.4232 57.1875 33.4968 57.3895C31.1182 57.2019 28.8447 56.9056 27.0098 56.1733C25.1998 55.4595 23.4975 54.6387 22.2779 53.3348C21.3903 52.9608 21.0277 52.0632 20.2519 51.5767C19.7588 50.8214 19.2168 50.0991 18.6295 49.4145C18.4649 48.9785 18.2378 48.5689 17.9553 48.1984C17.8453 47.7221 17.6622 47.2658 17.4124 46.8456C17.1071 45.8284 16.8813 44.7891 16.7369 43.737C16.6702 41.6424 16.9962 39.9406 17.1428 38.0608C17.345 37.6397 17.4377 37.1744 17.4124 36.708C17.6638 36.4632 17.587 35.8938 17.8191 35.6272C18.0809 34.8962 18.2263 34.0532 18.7647 33.6011C18.8991 32.6978 19.7169 32.4797 19.9804 31.7073C20.4377 31.668 20.3731 31.1091 20.7925 31.0323C21.0801 30.8241 21.2956 30.5444 21.6037 30.3559C22.0912 29.7905 22.6886 29.3303 23.3596 29.0032C23.6551 28.7897 23.9723 28.6081 24.3061 28.4616C24.6791 28.3621 25.0414 28.2262 25.3878 28.0558C26.2889 28.0558 27.3044 28.1706 27.6853 27.6518C27.4876 26.9479 27.4462 26.0896 27.2791 25.3547C27.0825 24.5551 27.0825 23.7198 27.2791 22.9203C27.828 22.1178 29.2793 22.2173 30.6582 22.2456C30.9436 21.8965 30.6761 21.0011 31.0636 20.7585C31.1151 20.1777 31.4267 19.8605 31.4694 19.271C32.4452 18.3546 33.1211 17.1398 34.0383 16.164C34.4546 16.0447 34.8287 15.8104 35.1179 15.4881C36.5845 15.2407 37.6872 14.6328 39.5793 14.8113C40.3285 15.0679 41.1694 15.2106 41.7419 15.7578C41.9732 15.9799 42.6303 16.3447 42.9576 16.7038C43.154 16.9194 43.1465 17.3213 43.4982 17.3797C44.3273 19.2997 44.9016 21.4733 46.6082 22.5144C47.1637 22.4088 47.2999 22.7239 47.8239 22.6514C48.2363 22.7492 48.2206 22.4158 48.6334 22.5144C50.3138 21.7168 51.4571 20.3832 52.5528 19.0013C52.5092 18.5531 51.9637 19.356 51.8773 18.8656C51.372 19.0109 51.4924 18.5304 51.067 18.5954C50.5097 17.8026 49.6872 17.2724 49.8508 15.7591C50.2222 15.2158 51.2101 15.0819 52.0143 15.3541C52.2002 15.1796 52.0946 14.7166 52.2827 14.5434C52.2028 14.3016 52.6807 13.9818 52.2827 13.8679C52.209 13.1165 52.3076 12.54 52.8247 12.3794C52.9813 12.4021 53.0647 12.3507 53.0939 12.2459C54.3467 12.2525 54.4291 13.4333 55.3926 13.7296C55.9599 13.1745 56.162 12.2486 56.7454 11.7027C57.4344 11.2274 58.2169 10.9046 59.0407 10.7557ZM55.7963 15.352H54.8498C54.6474 15.105 54.2677 15.0325 54.0399 14.8104C53.9557 14.6669 53.4748 13.9482 53.4993 14.5412C53.9164 15.3982 53.9753 17.3051 52.6881 17.2436C52.662 17.3703 52.6737 17.5018 52.7217 17.6219C52.7697 17.742 52.8519 17.8453 52.9582 17.9191C53.1349 18.2551 52.5624 18.4789 52.9582 18.5946C53.4277 17.94 54.4802 17.8637 55.6636 17.9191C56.3448 18.3651 57.0251 18.8102 57.1512 19.8129C57.0768 20.0555 56.9361 20.2725 56.745 20.4394C56.5538 20.6064 56.3199 20.7166 56.0695 20.7576C55.6209 20.6664 55.2434 20.5015 55.1239 20.0817C54.9035 20.0323 54.6738 20.0439 54.4596 20.1153C54.2454 20.1868 54.0547 20.3153 53.9081 20.4871C54.0391 20.9392 54.3371 21.2289 54.4475 21.7037C54.4541 22.299 54.5449 22.8905 54.7172 23.4605C55.4856 23.4605 55.7051 22.9159 56.6105 23.0564C56.6393 23.1607 56.7244 23.2117 56.8802 23.1899C57.0884 24.1063 57.684 24.6395 58.0959 25.3539C58.2233 24.6155 58.606 23.9453 59.1772 23.4605C59.1572 23.1249 59.1537 22.8059 59.4478 22.7841C60.0766 22.4957 60.7717 22.8823 61.4765 22.9194C61.226 21.9088 60.3685 21.5047 60.5291 20.083C60.4571 19.6052 61.0091 19.7514 60.9358 19.2714C60.2341 18.3629 61.2142 17.1144 61.4765 16.2989C60.627 16.165 59.7659 16.12 58.9071 16.1645C58.6667 15.8189 58.3272 15.5728 58.2316 15.0827V12.7844C58.3076 12.7844 58.3865 12.6753 58.2316 12.6483C57.0879 13.2182 57.187 15.0286 55.7963 15.3502V15.352ZM20.9278 34.5437C20.7297 34.6257 20.9404 34.7073 20.9278 34.5437C21.667 34.02 22.308 33.4026 23.0891 32.9226C23.549 32.748 23.8711 32.4426 24.3057 32.2458C24.6028 32.1249 25.37 31.6986 25.5218 32.2458C25.1238 33.3323 24.2633 33.9603 23.6302 34.8142C22.7845 35.4544 22.1775 36.3349 21.3327 36.9768C21.3327 37.4276 20.8924 37.4376 20.9278 37.9207C20.7266 37.9643 20.3457 38.4906 20.6559 38.5984C20.8545 37.9853 21.4444 37.7623 21.7372 37.2456C22.1915 36.9362 22.438 36.4166 23.3592 36.571C23.4814 36.8102 23.6856 36.9637 23.765 37.2456C23.0668 38.3064 22.1295 39.1264 21.6033 40.3552C20.856 41.4692 20.3068 42.7039 19.98 44.0049C20.5874 43.9347 20.5346 43.2055 20.9278 42.9236C21.1617 42.5261 21.3266 42.0605 21.7372 41.841C21.7992 41.2737 22.3774 41.2192 22.5493 40.7614C22.9355 40.5144 23.1484 40.099 23.902 40.2194C24.1682 41.2309 23.4124 42.2049 23.2261 43.1933C22.6588 43.9351 22.5764 45.1569 22.01 45.8987C22.068 46.6331 21.4999 47.309 21.8747 47.9261C22.3743 48.0203 22.1077 47.3479 22.4149 47.2514C22.3809 46.8539 22.7204 46.8338 22.685 46.4389C23.2004 46.188 23.1157 45.3384 23.6315 45.0862C23.7401 44.4295 24.245 44.1672 24.4422 43.5995C24.8079 43.2439 24.9659 42.6805 25.6597 42.6522C26.4705 42.9646 25.843 44.1546 25.7937 44.8152C25.5798 45.0522 25.6126 45.5366 25.5231 45.897C25.4062 46.0624 25.0937 46.7104 25.3887 46.843C25.7688 46.2321 26.1131 45.5845 27.0107 45.4903C27.4069 45.5003 27.5121 45.7997 27.6862 46.0318C27.7727 46.5755 27.7263 47.132 27.5509 47.6538C27.3724 48.105 27.4318 48.797 27.1451 49.14C27.2123 49.7317 27.7089 48.7002 28.2268 48.8699C29.6232 49.6593 28.2539 51.5462 28.2268 52.9255C28.6872 52.9595 28.8753 53.2658 29.4425 53.1956C29.779 52.4058 29.7323 51.232 30.9292 51.3035C31.4298 51.3908 31.342 52.0619 31.3355 52.6541C31.1378 52.7374 31.3481 52.8177 31.3355 52.6541C31.5122 52.6069 31.5467 52.4158 31.7404 52.3844C32.3116 52.7902 31.2639 53.9911 32.0105 54.1416C32.6577 54.2917 32.6337 53.7733 32.686 53.3304C32.8815 53.0444 33.0196 52.7231 33.0927 52.3844C33.5662 51.9572 33.5985 51.0875 34.7142 51.3035C35.1017 52.3508 34.4009 53.2763 34.4455 54.4113C34.9082 54.3234 35.3605 54.1876 35.7951 54.0059C35.802 53.526 35.9427 53.0575 36.2014 52.6532C36.4763 52.3914 36.4833 51.8568 37.0108 51.842C37.7688 51.9293 37.133 53.0485 37.4167 53.3296C38.2458 52.5816 39.4039 52.1632 40.2552 51.4366C41.1607 50.7659 41.837 49.8657 42.6875 49.1392C42.9401 48.4008 43.5074 47.9762 43.7697 47.2488C44.1371 46.6689 44.3679 45.9533 44.7153 45.3554C45.2529 43.908 45.6599 42.4154 45.9314 40.8954C45.9623 39.677 45.9172 38.4579 45.7962 37.2452C45.3598 36.5125 45.2132 35.4871 44.7153 34.8138C44.4665 33.8913 43.8774 33.3083 43.4991 32.5163C42.8245 32.0656 42.2834 31.4795 41.607 31.0288C40.887 30.6666 40.3316 30.1412 39.5801 29.8131C38.8417 29.3354 38.0137 29.0133 37.1465 28.8666C36.4558 28.4739 35.4251 28.4254 34.9835 27.7848C34.9983 26.9422 35.2086 26.2973 35.1187 25.3534C34.8904 25.044 34.6173 24.7703 34.3084 24.5414H29.4412C29.391 25.1523 29.2641 25.5489 29.5778 26.0289C29.974 25.4346 30.9742 25.4459 31.7391 25.2164C31.9503 25.4115 32.2091 25.5585 32.2802 25.8936C32.0737 26.4504 31.7513 26.9568 31.3342 27.3794C30.8978 27.7552 30.7761 28.4433 30.2524 28.7322C30.1713 28.9661 29.6114 28.7221 29.5778 29.0032C29.5564 29.2523 29.1183 29.0861 29.0367 29.2737H28.0907C27.5544 29.6385 26.7 29.6856 26.1969 30.0836C25.4153 30.2014 24.9703 30.6579 24.3057 30.8961C23.3631 31.7099 22.3691 32.4718 21.4693 33.3275C21.3855 33.8311 20.9601 33.9895 20.9278 34.5437Z" fill="black"/>
</g>
<defs>
<filter id="filter0_d_348_13" x="6.25977" y="6.10315" width="68.9355" height="68.9352" filterUnits="userSpaceOnUse" color-interpolation-filters="sRGB">
<feFlood flood-opacity="0" result="BackgroundImageFix"/>
<feColorMatrix in="SourceAlpha" type="matrix" values="0 0 0 0 0 0 0 0 0 0 0 0 0 0 0 0 0 0 127 0" result="hardAlpha"/>
<feOffset dy="4"/>
<feGaussianBlur stdDeviation="2"/>
<feComposite in2="hardAlpha" operator="out"/>
<feColorMatrix type="matrix" values="0 0 0 0 0 0 0 0 0 0 0 0 0 0 0 0 0 0 0.25 0"/>
<feBlend mode="normal" in2="BackgroundImageFix" result="effect1_dropShadow_348_13"/>
<feBlend mode="normal" in="SourceGraphic" in2="effect1_dropShadow_348_13" result="shape"/>
</filter>
<filter id="filter1_d_348_13" x="0.741699" y="0.585083" width="76.0264" height="76.0261" filterUnits="userSpaceOnUse" color-interpolation-filters="sRGB">
<feFlood flood-opacity="0" result="BackgroundImageFix"/>
<feColorMatrix in="SourceAlpha" type="matrix" values="0 0 0 0 0 0 0 0 0 0 0 0 0 0 0 0 0 0 127 0" result="hardAlpha"/>
<feOffset dy="4"/>
<feGaussianBlur stdDeviation="2"/>
<feComposite in2="hardAlpha" operator="out"/>
<feColorMatrix type="matrix" values="0 0 0 0 0 0 0 0 0 0 0 0 0 0 0 0 0 0 0.25 0"/>
<feBlend mode="normal" in2="BackgroundImageFix" result="effect1_dropShadow_348_13"/>
<feBlend mode="normal" in="SourceGraphic" in2="effect1_dropShadow_348_13" result="shape"/>
</filter>
<clipPath id="clip0_348_13">
<rect width="48" height="48" fill="white" transform="translate(16.7275 10.0707)"/>
</clipPath>
</defs>
</svg>
