<svg id='Bomb_24' width='24' height='24' viewBox='0 0 24 24' xmlns='http://www.w3.org/2000/svg' xmlns:xlink='http://www.w3.org/1999/xlink'><rect width='24' height='24' stroke='none' fill='#000000' opacity='0'/>


<g transform="matrix(0.42 0 0 0.42 12 12)" >
<g style="" >
<g transform="matrix(1 0 0 1 -11 -4.5)" >
<path style="stroke: none; stroke-width: 1; stroke-dasharray: none; stroke-linecap: butt; stroke-dashoffset: 0; stroke-linejoin: miter; stroke-miterlimit: 4; fill: rgb(30,136,229); fill-rule: nonzero; opacity: 1;" transform=" translate(-13, -19.5)" d="M 11.1 32 L 5.9 32 C 3.8 32 2 30.2 2 28.1 C 2 27 2.4 26 3.2 25.2 C 2.5 24.4 2 23.3 2 22.2 C 2 20.599999999999998 3 19.3 4.2 18.4 C 3.5 16.7 3.4000000000000004 14.399999999999999 5.2 12.599999999999998 C 6.2 11.599999999999998 7.6 11.199999999999998 9 11.299999999999997 C 9.2 9.599999999999998 10.1 8.299999999999997 11.7 7.599999999999997 C 13.7 6.699999999999997 15.6 7.299999999999997 16.9 8.299999999999997 C 17.6 7.5 18.5 7 19.7 7 C 22.3 7 24 8.6 24 11.1 L 24 16 L 22 16 L 22 11.1 C 22 9.3 20.5 9 19.7 9 C 19.099999999999998 9 18.599999999999998 9.3 18.3 9.6 C 18.8 10.299999999999999 19 11 18.8 11.7 C 18.6 12.299999999999999 18.1 12.7 17.400000000000002 12.799999999999999 C 16.700000000000003 12.899999999999999 16.1 12.6 15.800000000000002 12.2 C 15.400000000000002 11.6 15.400000000000002 10.799999999999999 15.800000000000002 9.899999999999999 C 15.700000000000003 9.799999999999999 15.600000000000003 9.7 15.400000000000002 9.7 C 14.800000000000002 9.399999999999999 13.700000000000003 8.899999999999999 12.400000000000002 9.399999999999999 C 11.200000000000003 9.899999999999999 10.900000000000002 10.899999999999999 10.800000000000002 11.599999999999998 C 10.800000000000002 11.599999999999998 10.800000000000002 11.599999999999998 10.800000000000002 11.599999999999998 C 11.400000000000002 11.799999999999997 11.900000000000002 12.099999999999998 12.300000000000002 12.399999999999999 C 13.100000000000003 13.2 13.100000000000003 14.2 12.400000000000002 14.899999999999999 C 11.900000000000002 15.399999999999999 11.300000000000002 15.599999999999998 10.700000000000003 15.299999999999999 C 9.900000000000002 14.999999999999998 9.400000000000002 14.1 9.100000000000003 13.2 C 8.500000000000004 13.2 7.300000000000003 13.2 6.600000000000003 13.899999999999999 C 5.700000000000003 14.799999999999999 5.700000000000003 15.899999999999999 5.800000000000003 16.599999999999998 C 5.8 17 5.9 17.3 6 17.5 C 6.7 17.3 7.3 17.4 7.8 17.8 C 8 18 8.4 18.5 8.1 19.5 C 7.8999999999999995 20.2 7.3999999999999995 20.6 6.8 20.7 C 6.3 20.7 5.699999999999999 20.5 5.3 20.099999999999998 C 5.2 20.2 5.1 20.299999999999997 5 20.299999999999997 C 4.6 20.599999999999998 4 21.299999999999997 4 22.199999999999996 C 4 23.099999999999994 4.5 23.799999999999997 4.9 24.099999999999994 C 5.4 23.899999999999995 5.9 23.799999999999994 6.4 23.799999999999994 C 7.6000000000000005 23.799999999999994 8.200000000000001 24.499999999999993 8.200000000000001 25.299999999999994 C 8.200000000000001 26.299999999999994 7.500000000000001 26.999999999999993 6.400000000000001 26.999999999999993 C 5.900000000000001 26.999999999999993 5.300000000000001 26.799999999999994 4.700000000000001 26.499999999999993 C 4.200000000000001 26.89999999999999 4.000000000000001 27.499999999999993 4.000000000000001 28.099999999999994 C 4 29.1 4.9 30 5.9 30 L 11 30 L 11 32 z" stroke-linecap="round" />
</g>
<g transform="matrix(1 0 0 1 3.5 6)" >
<path style="stroke: none; stroke-width: 1; stroke-dasharray: none; stroke-linecap: butt; stroke-dashoffset: 0; stroke-linejoin: miter; stroke-miterlimit: 4; fill: rgb(255,183,77); fill-rule: nonzero; opacity: 1;" transform=" translate(-27.5, -30)" d="M 43 35 L 12 35 C 12 35 9 34.9 9 30 C 9 25.1 12 25 12 25 L 43 25 C 43 25 46 25 46 30 C 46 35 43 35 43 35 z" stroke-linecap="round" />
</g>
<g transform="matrix(1 0 0 1 3.5 5)" >
<path style="stroke: none; stroke-width: 1; stroke-dasharray: none; stroke-linecap: butt; stroke-dashoffset: 0; stroke-linejoin: miter; stroke-miterlimit: 4; fill: rgb(255,145,0); fill-rule: nonzero; opacity: 1;" transform=" translate(-27.5, -29)" d="M 43 25 L 12 25 C 12 25 10 24.9 10 21 C 10 17.1 12 17 12 17 L 43 17 C 43 17 45 17 45 21 C 45 25 43 25 43 25 z M 45 38 C 45 35 43 35 43 35 L 12 35 C 12 35 10 35.1 10 38 C 10 40.9 12 41 12 41 L 43 41 C 43 41 45 41 45 38 z" stroke-linecap="round" />
</g>
<g transform="matrix(1 0 0 1 3.5 5)" >
<path style="stroke: none; stroke-width: 1; stroke-dasharray: none; stroke-linecap: butt; stroke-dashoffset: 0; stroke-linejoin: miter; stroke-miterlimit: 4; fill: rgb(121,85,72); fill-rule: nonzero; opacity: 1;" transform=" translate(-27.5, -29)" d="M 39 29 C 39 35.1 37.8 39.4 37.3 41 L 39.4 41 C 40 39 41 34.7 41 29 C 41 23.299999999999997 40 19 39.4 17 L 37.3 17 C 37.8 18.6 39 22.9 39 29 z M 16 29 C 16 22.9 17.2 18.6 17.7 17 L 15.6 17 C 15 19 14 23.3 14 29 C 14 34.7 15 39 15.6 41 L 17.7 41 C 17.2 39.4 16 35.1 16 29 z" stroke-linecap="round" />
</g>
<g transform="matrix(1 0 0 1 3.5 -3)" >
<path style="stroke: none; stroke-width: 1; stroke-dasharray: none; stroke-linecap: butt; stroke-dashoffset: 0; stroke-linejoin: miter; stroke-miterlimit: 4; fill: rgb(38,50,56); fill-rule: nonzero; opacity: 1;" transform=" translate(-27.5, -21)" d="M 36.2 28 L 18.8 28 C 17.8 28 17 27.2 17 26.2 L 17 15.8 C 17 14.8 17.8 14 18.8 14 L 36.2 14 C 37.2 14 38 14.8 38 15.8 L 38 26.200000000000003 C 38 27.2 37.2 28 36.2 28 z" stroke-linecap="round" />
</g>
<g transform="matrix(1 0 0 1 3.5 -3)" >
<path style="stroke: none; stroke-width: 1; stroke-dasharray: none; stroke-linecap: butt; stroke-dashoffset: 0; stroke-linejoin: miter; stroke-miterlimit: 4; fill: rgb(255,61,0); fill-rule: nonzero; opacity: 1;" transform=" translate(-27.5, -21)" d="M 26 18 L 25 17 L 24 17 L 23 18 L 22 17 L 21 17 L 19 19 L 19 23 L 21 25 L 22 25 L 23 24 L 24 25 L 25 25 L 27 23 L 27 19 L 26 18 z M 21 23 L 21 19 L 22 19 L 22 23 L 21 23 z M 24 23 L 24 19 L 25 19 L 25 23 L 24 23 z M 35 18 L 34 17 L 33 17 L 32 18 L 31 17 L 30 17 L 28 19 L 28 23 L 30 25 L 31 25 L 32 24 L 33 25 L 34 25 L 36 23 L 36 19 L 35 18 z M 30 23 L 30 19 L 31 19 L 31 23 L 30 23 z M 33 23 L 33 19 L 34 19 L 34 23 L 33 23 z" stroke-linecap="round" />
</g>
<g transform="matrix(1 0 0 1 -12.89 -5.55)" >
<path style="stroke: none; stroke-width: 1; stroke-dasharray: none; stroke-linecap: butt; stroke-dashoffset: 0; stroke-linejoin: miter; stroke-miterlimit: 4; fill: rgb(13,71,161); fill-rule: nonzero; opacity: 1;" transform=" translate(-11.11, -18.45)" d="M 17.4 12.8 C 17.4 12.8 17.4 12.8 17.4 12.8 C 16.599999999999998 13 14.799999999999999 12.600000000000001 15.799999999999999 9.9 L 15.799999999999999 9.9 C 15.8 9.8 18.4 11.7 17.4 12.8 z M 9 13.2 C 9 13.2 9 13 9 13.2 C 9 13.399999999999999 10.1 16.4 12 15.2 C 12.5 13.1 9 13.2 9 13.2 z M 5.3 20 C 5.6 20.5 7.3 21.4 8.1 19.7 C 7.3 18.1 5.3 20 5.3 20 z M 6.4 27 C 7.2 27 7.800000000000001 26.6 8 25.9 C 6.8 24.5 4.6 26.5 4.6 26.5 L 4.6 26.5 C 4.6 26.5 4.6 26.5 4.6 26.5 C 5.3 26.8 5.9 27 6.4 27 z" stroke-linecap="round" />
</g>
</g>
</g>
</svg>