<svg width="60" height="60" viewBox="0 0 60 60" fill="none" xmlns="http://www.w3.org/2000/svg">
<path d="M60 2.6087V10.4348H0V2.6087C0 1.91683 0.274844 1.25329 0.764069 0.764069C1.25329 0.274844 1.91683 0 2.6087 0H57.3913C58.0832 0 58.7467 0.274844 59.2359 0.764069C59.7252 1.25329 60 1.91683 60 2.6087Z" fill="#A87E6B"/>
<path d="M60.0002 2.6087V7.82609H10.435C8.35937 7.82609 6.36877 7.00155 4.90109 5.53388C3.43342 4.0662 2.60889 2.07561 2.60889 0H57.3915C58.0834 0 58.7469 0.274844 59.2361 0.764069C59.7253 1.25329 60.0002 1.91683 60.0002 2.6087Z" fill="#BE927C"/>
<path d="M60 49.5652V57.3913C60 58.0831 59.7252 58.7467 59.2359 59.2359C58.7467 59.7251 58.0832 60 57.3913 60H2.6087C1.91683 60 1.25329 59.7251 0.764069 59.2359C0.274844 58.7467 0 58.0831 0 57.3913V49.5652H60Z" fill="#A87E6B"/>
<path d="M60.0002 49.5652V57.3913H10.435C8.35937 57.3913 6.36877 56.5667 4.90109 55.0991C3.43342 53.6314 2.60889 51.6408 2.60889 49.5652H60.0002Z" fill="#BE927C"/>
<path d="M10.4348 10.4348H0V49.5653H10.4348V10.4348Z" fill="#A87E6B"/>
<path d="M10.435 10.4348C10.435 48.4305 10.3045 46.9566 10.435 46.9566C8.35937 46.9566 6.36877 46.132 4.90109 44.6643C3.43342 43.1967 2.60889 41.2061 2.60889 39.1305V10.4348H10.435Z" fill="#BE927C"/>
<path d="M60.0002 10.4348H49.5654V49.5653H60.0002V10.4348Z" fill="#A87E6B"/>
<path d="M59.9999 10.4348C59.9999 48.4305 59.8695 46.9566 59.9999 46.9566C57.9243 46.9566 55.9337 46.132 54.466 44.6643C52.9984 43.1967 52.1738 41.2061 52.1738 39.1305V10.4348H59.9999Z" fill="#BE927C"/>
<path d="M6.52178 54.7826C6.52178 54.4367 6.38436 54.1049 6.13975 53.8603C5.89513 53.6157 5.56337 53.4783 5.21743 53.4783C4.8715 53.4783 4.53973 53.6157 4.29512 53.8603C4.05051 54.1049 3.91309 54.4367 3.91309 54.7826C3.91309 55.1286 4.05051 55.4603 4.29512 55.7049C4.53973 55.9495 4.8715 56.087 5.21743 56.087C5.56337 56.087 5.89513 55.9495 6.13975 55.7049C6.38436 55.4603 6.52178 55.1286 6.52178 54.7826Z" fill="#7C7D7D"/>
<path d="M6.52178 43.0435C6.52178 42.6975 6.38436 42.3658 6.13975 42.1212C5.89513 41.8766 5.56337 41.7391 5.21743 41.7391C4.8715 41.7391 4.53973 41.8766 4.29512 42.1212C4.05051 42.3658 3.91309 42.6975 3.91309 43.0435C3.91309 43.3894 4.05051 43.7212 4.29512 43.9658C4.53973 44.2104 4.8715 44.3478 5.21743 44.3478C5.56337 44.3478 5.89513 44.2104 6.13975 43.9658C6.38436 43.7212 6.52178 43.3894 6.52178 43.0435Z" fill="#7C7D7D"/>
<path d="M6.52178 30C6.52178 29.6541 6.38436 29.3223 6.13975 29.0777C5.89513 28.8331 5.56337 28.6957 5.21743 28.6957C4.8715 28.6957 4.53973 28.8331 4.29512 29.0777C4.05051 29.3223 3.91309 29.6541 3.91309 30C3.91309 30.346 4.05051 30.6777 4.29512 30.9223C4.53973 31.167 4.8715 31.3044 5.21743 31.3044C5.56337 31.3044 5.89513 31.167 6.13975 30.9223C6.38436 30.6777 6.52178 30.346 6.52178 30Z" fill="#7C7D7D"/>
<path d="M6.52178 16.9566C6.52178 16.6106 6.38436 16.2789 6.13975 16.0343C5.89513 15.7896 5.56337 15.6522 5.21743 15.6522C4.8715 15.6522 4.53973 15.7896 4.29512 16.0343C4.05051 16.2789 3.91309 16.6106 3.91309 16.9566C3.91309 17.3025 4.05051 17.6343 4.29512 17.8789C4.53973 18.1235 4.8715 18.2609 5.21743 18.2609C5.56337 18.2609 5.89513 18.1235 6.13975 17.8789C6.38436 17.6343 6.52178 17.3025 6.52178 16.9566Z" fill="#7C7D7D"/>
<path d="M56.0867 43.0435C56.0867 42.6975 55.9493 42.3658 55.7047 42.1212C55.4601 41.8766 55.1283 41.7391 54.7824 41.7391C54.4364 41.7391 54.1047 41.8766 53.8601 42.1212C53.6154 42.3658 53.478 42.6975 53.478 43.0435C53.478 43.3894 53.6154 43.7212 53.8601 43.9658C54.1047 44.2104 54.4364 44.3478 54.7824 44.3478C55.1283 44.3478 55.4601 44.2104 55.7047 43.9658C55.9493 43.7212 56.0867 43.3894 56.0867 43.0435Z" fill="#7C7D7D"/>
<path d="M56.0867 16.9566C56.0867 16.6106 55.9493 16.2789 55.7047 16.0343C55.4601 15.7896 55.1283 15.6522 54.7824 15.6522C54.4364 15.6522 54.1047 15.7896 53.8601 16.0343C53.6154 16.2789 53.478 16.6106 53.478 16.9566C53.478 17.3025 53.6154 17.6343 53.8601 17.8789C54.1047 18.1235 54.4364 18.2609 54.7824 18.2609C55.1283 18.2609 55.4601 18.1235 55.7047 17.8789C55.9493 17.6343 56.0867 17.3025 56.0867 16.9566Z" fill="#7C7D7D"/>
<path d="M56.0867 30C56.0867 29.6541 55.9493 29.3223 55.7047 29.0777C55.4601 28.8331 55.1283 28.6957 54.7824 28.6957C54.4364 28.6957 54.1047 28.8331 53.8601 29.0777C53.6154 29.3223 53.478 29.6541 53.478 30C53.478 30.346 53.6154 30.6777 53.8601 30.9223C54.1047 31.167 54.4364 31.3044 54.7824 31.3044C55.1283 31.3044 55.4601 31.167 55.7047 30.9223C55.9493 30.6777 56.0867 30.346 56.0867 30Z" fill="#7C7D7D"/>
<path d="M6.52178 5.21743C6.52178 4.8715 6.38436 4.53973 6.13975 4.29512C5.89513 4.05051 5.56337 3.91309 5.21743 3.91309C4.8715 3.91309 4.53973 4.05051 4.29512 4.29512C4.05051 4.53973 3.91309 4.8715 3.91309 5.21743C3.91309 5.56337 4.05051 5.89513 4.29512 6.13975C4.53973 6.38436 4.8715 6.52178 5.21743 6.52178C5.56337 6.52178 5.89513 6.38436 6.13975 6.13975C6.38436 5.89513 6.52178 5.56337 6.52178 5.21743Z" fill="#7C7D7D"/>
<path d="M56.0867 54.7826C56.0867 54.4367 55.9493 54.1049 55.7047 53.8603C55.4601 53.6157 55.1283 53.4783 54.7824 53.4783C54.4364 53.4783 54.1047 53.6157 53.8601 53.8603C53.6154 54.1049 53.478 54.4367 53.478 54.7826C53.478 55.1286 53.6154 55.4603 53.8601 55.7049C54.1047 55.9495 54.4364 56.087 54.7824 56.087C55.1283 56.087 55.4601 55.9495 55.7047 55.7049C55.9493 55.4603 56.0867 55.1286 56.0867 54.7826Z" fill="#7C7D7D"/>
<path d="M56.0867 5.21743C56.0867 4.8715 55.9493 4.53973 55.7047 4.29512C55.4601 4.05051 55.1283 3.91309 54.7824 3.91309C54.4364 3.91309 54.1047 4.05051 53.8601 4.29512C53.6154 4.53973 53.478 4.8715 53.478 5.21743C53.478 5.56337 53.6154 5.89513 53.8601 6.13975C54.1047 6.38436 54.4364 6.52178 54.7824 6.52178C55.1283 6.52178 55.4601 6.38436 55.7047 6.13975C55.9493 5.89513 56.0867 5.56337 56.0867 5.21743Z" fill="#7C7D7D"/>
<path d="M44.348 5.21743C44.348 4.8715 44.2105 4.53973 43.9659 4.29512C43.7213 4.05051 43.3895 3.91309 43.0436 3.91309C42.6977 3.91309 42.3659 4.05051 42.1213 4.29512C41.8767 4.53973 41.7393 4.8715 41.7393 5.21743C41.7393 5.56337 41.8767 5.89513 42.1213 6.13975C42.3659 6.38436 42.6977 6.52178 43.0436 6.52178C43.3895 6.52178 43.7213 6.38436 43.9659 6.13975C44.2105 5.89513 44.348 5.56337 44.348 5.21743Z" fill="#7C7D7D"/>
<path d="M31.3045 5.21743C31.3045 4.8715 31.1671 4.53973 30.9225 4.29512C30.6779 4.05051 30.3461 3.91309 30.0001 3.91309C29.6542 3.91309 29.3224 4.05051 29.0778 4.29512C28.8332 4.53973 28.6958 4.8715 28.6958 5.21743C28.6958 5.56337 28.8332 5.89513 29.0778 6.13975C29.3224 6.38436 29.6542 6.52178 30.0001 6.52178C30.3461 6.52178 30.6779 6.38436 30.9225 6.13975C31.1671 5.89513 31.3045 5.56337 31.3045 5.21743Z" fill="#7C7D7D"/>
<path d="M18.261 5.21743C18.261 4.8715 18.1236 4.53973 17.879 4.29512C17.6344 4.05051 17.3026 3.91309 16.9567 3.91309C16.6108 3.91309 16.279 4.05051 16.0344 4.29512C15.7898 4.53973 15.6523 4.8715 15.6523 5.21743C15.6523 5.56337 15.7898 5.89513 16.0344 6.13975C16.279 6.38436 16.6108 6.52178 16.9567 6.52178C17.3026 6.52178 17.6344 6.38436 17.879 6.13975C18.1236 5.89513 18.261 5.56337 18.261 5.21743Z" fill="#7C7D7D"/>
<path d="M44.348 54.7826C44.348 54.4367 44.2105 54.1049 43.9659 53.8603C43.7213 53.6157 43.3895 53.4783 43.0436 53.4783C42.6977 53.4783 42.3659 53.6157 42.1213 53.8603C41.8767 54.1049 41.7393 54.4367 41.7393 54.7826C41.7393 55.1286 41.8767 55.4603 42.1213 55.7049C42.3659 55.9495 42.6977 56.087 43.0436 56.087C43.3895 56.087 43.7213 55.9495 43.9659 55.7049C44.2105 55.4603 44.348 55.1286 44.348 54.7826Z" fill="#7C7D7D"/>
<path d="M31.3045 54.7826C31.3045 54.4367 31.1671 54.1049 30.9225 53.8603C30.6779 53.6157 30.3461 53.4783 30.0001 53.4783C29.6542 53.4783 29.3224 53.6157 29.0778 53.8603C28.8332 54.1049 28.6958 54.4367 28.6958 54.7826C28.6958 55.1286 28.8332 55.4603 29.0778 55.7049C29.3224 55.9495 29.6542 56.087 30.0001 56.087C30.3461 56.087 30.6779 55.9495 30.9225 55.7049C31.1671 55.4603 31.3045 55.1286 31.3045 54.7826Z" fill="#7C7D7D"/>
<path d="M18.261 54.7826C18.261 54.4367 18.1236 54.1049 17.879 53.8603C17.6344 53.6157 17.3026 53.4783 16.9567 53.4783C16.6108 53.4783 16.279 53.6157 16.0344 53.8603C15.7898 54.1049 15.6523 54.4367 15.6523 54.7826C15.6523 55.1286 15.7898 55.4603 16.0344 55.7049C16.279 55.9495 16.6108 56.087 16.9567 56.087C17.3026 56.087 17.6344 55.9495 17.879 55.7049C18.1236 55.4603 18.261 55.1286 18.261 54.7826Z" fill="#7C7D7D"/>
<path d="M49.565 10.4348L10.4346 49.5653V36.5218L36.5215 10.4348H49.565Z" fill="#A87E6B"/>
<path d="M36.5215 10.4348L10.4346 36.5218V23.4783L23.478 10.4348H36.5215Z" fill="#BE927C"/>
<path d="M23.478 10.4348L10.4346 23.4783V10.4348H23.478Z" fill="#A87E6B"/>
<path d="M49.565 10.4348V23.4783L23.478 49.5653H10.4346L49.565 10.4348Z" fill="#BE927C"/>
<path d="M49.5655 36.5217V49.5652H36.522L49.5655 36.5217Z" fill="#BE927C"/>
<path d="M49.565 23.4783V36.5217L36.5215 49.5652H23.478L49.565 23.4783Z" fill="#A87E6B"/>
<path d="M13.0433 46.9566V10.4348H10.4346V49.5653H49.565V46.9566H13.0433Z" fill="#A87E6B"/>
</svg>
