<svg width="734" height="167" viewBox="0 0 734 167" fill="none" xmlns="http://www.w3.org/2000/svg">
<rect y="27.1868" width="2.79847" height="27.4251" fill="#434343"/>
<rect x="1.39941" y="29.9852" width="2.79847" height="27.4251" transform="rotate(-90 1.39941 29.9852)" fill="#434343"/>
<rect x="734" y="27.1868" width="2.79847" height="27.4251" transform="rotate(90 734 27.1868)" fill="#434343"/>
<rect x="731.201" y="28.5861" width="2.79847" height="27.4251" fill="#434343"/>
<rect x="734" y="166.271" width="2.79847" height="27.4251" transform="rotate(-180 734 166.271)" fill="#434343"/>
<rect x="732.601" y="163.473" width="2.79847" height="27.4251" transform="rotate(90 732.601 163.473)" fill="#434343"/>
<rect y="166.271" width="2.79847" height="27.4251" transform="rotate(-90 0 166.271)" fill="#434343"/>
<rect x="2.79834" y="164.872" width="2.79847" height="27.4251" transform="rotate(-180 2.79834 164.872)" fill="#434343"/>
<path d="M401.5 118.687V110.187H393V67.6868H401.5V59.1868H444V67.6868H452.5V110.187H444V118.687H401.5ZM410 110.187H435.5V67.6868H410V110.187Z" fill="black"/>
<path d="M404.047 64.583L401.138 55.1181L409.165 52.6521C407.89 48.3579 405.5 37.6812 411.414 32.6666C417.254 27.716 428.648 30.0143 446.165 39.67C446.224 38.9821 446.197 38.2788 446.066 37.5764L445.286 33.351L448.864 35.7273C450.828 37.0322 453.212 37.3942 455.404 36.7208C457.593 36.0481 459.364 34.4112 460.257 32.2309L461.395 29.4525L463.335 31.7446C464.818 33.4992 467.019 34.486 469.372 34.449L473.077 34.3922L470.859 37.3607C469.35 39.378 468.905 41.8948 469.633 44.2615C470.053 45.6286 470.867 46.8621 471.991 47.8308L475.022 50.4454L471.06 51.0158C470.665 51.0726 470.267 51.1235 469.873 51.2443C467.626 51.9344 465.838 53.6176 464.965 55.8641L464.131 58.0137L462.233 56.7048C459.27 54.6584 455.29 54.8258 452.522 57.4781L450.277 59.6352L448.922 54.3954C448.056 51.5779 446.054 49.2903 443.563 48.2711L440.613 47.0643L443.151 45.1352C443.881 44.5779 444.478 43.9042 444.956 43.1617C423.844 31.4356 416.361 33.256 413.772 35.4463C409.842 38.7762 411.304 47.1177 412.636 51.5886L425.5 59.1868L404.047 64.583Z" fill="#010002"/>
<path d="M493.5 118.5V110H485V101.5H476.5V93H468V59H485V84.5H493.5V93H502V84.5H510.5V59H527.5V93H519V101.5H510.5V110H502V118.5H493.5ZM536 118.5V59H595.5V67.5H553V84.5H587V93H553V110H595.5V118.5H536ZM604 118.5V59H655V67.5H663.5V93H646.5V101.5H655V110H663.5V118.5H638V110H629.5V101.5H621V118.5H604ZM621 93H638V84.5H646.5V67.5H621V93Z" fill="black"/>
<path d="M79 116.5V108H70.5V99.5H62V74H70.5V65.5H79V57H121.5V65.5H87.5V74H79V99.5H87.5V108H104.5V91H96V82.5H121.5V116.5H79ZM130 116.5V74H138.5V65.5H147V57H172.5V65.5H181V74H189.5V116.5H172.5V99.5H147V116.5H130ZM147 91H172.5V74H164V65.5H155.5V74H147V91ZM198 116.5V57H215V65.5H223.5V74H232V65.5H240.5V57H257.5V116.5H240.5V82.5H232V99.5H223.5V82.5H215V116.5H198ZM266 116.5V57H325.5V65.5H283V82.5H317V91H283V108H325.5V116.5H266Z" fill="black"/>
</svg>
