<svg width="26" height="24" viewBox="0 0 26 24" fill="none" xmlns="http://www.w3.org/2000/svg">
<path d="M24.9957 7.71237C24.9259 5.38315 23.8131 3.4687 22.239 2.29828C20.2142 0.791202 17.4226 0.514693 15.1023 2.15897C14.3365 2.70355 13.6197 3.45709 13.0001 4.44703C12.3805 3.45709 11.6648 2.70355 10.8979 2.16003C8.57758 0.514693 5.78705 0.791202 3.76124 2.29934C2.18597 3.46975 1.07434 5.38421 1.00453 7.71343C0.966344 8.95033 1.16271 10.3308 1.86416 11.727C2.96597 13.9191 8.14231 18.7928 12.9597 23.0016L12.9979 23.0417L13.0001 23.0396L13.0023 23.0417L13.0416 23.0016C17.8579 18.7938 23.0331 13.9201 24.136 11.727C24.8386 10.3308 25.0328 8.94928 24.9957 7.71237Z" fill="black" stroke="black" stroke-width="0.298667"/>
</svg>
