<svg width="122" height="24" viewBox="0 0 122 24" fill="none" xmlns="http://www.w3.org/2000/svg">
<path d="M24.9957 7.71237C24.9259 5.38315 23.8131 3.4687 22.239 2.29828C20.2142 0.791202 17.4226 0.514693 15.1023 2.15897C14.3365 2.70355 13.6197 3.45709 13.0001 4.44703C12.3805 3.45709 11.6648 2.70355 10.8979 2.16003C8.57758 0.514693 5.78705 0.791202 3.76124 2.29934C2.18597 3.46975 1.07434 5.38421 1.00453 7.71343C0.966344 8.95033 1.16271 10.3308 1.86416 11.727C2.96597 13.9191 8.14231 18.7928 12.9597 23.0016L12.9979 23.0417L13.0001 23.0396L13.0023 23.0417L13.0416 23.0016C17.8579 18.7938 23.0331 13.9201 24.136 11.727C24.8386 10.3308 25.0328 8.94928 24.9957 7.71237Z" fill="black" stroke="black" stroke-width="0.298667"/>
<path d="M72.9957 7.71237C72.9259 5.38315 71.8131 3.4687 70.239 2.29828C68.2142 0.791202 65.4226 0.514693 63.1023 2.15897C62.3365 2.70355 61.6197 3.45709 61.0001 4.44703C60.3805 3.45709 59.6648 2.70355 58.8979 2.16003C56.5776 0.514693 53.787 0.791202 51.7612 2.29934C50.186 3.46975 49.0743 5.38421 49.0045 7.71343C48.9663 8.95033 49.1627 10.3308 49.8642 11.727C50.966 13.9191 56.1423 18.7928 60.9597 23.0016L60.9979 23.0417L61.0001 23.0396L61.0023 23.0417L61.0416 23.0016C65.8579 18.7938 71.0331 13.9201 72.136 11.727C72.8386 10.3308 73.0328 8.94928 72.9957 7.71237Z" fill="black" stroke="black" stroke-width="0.298667"/>
<path d="M120.996 7.71237C120.926 5.38315 119.813 3.4687 118.239 2.29828C116.214 0.791202 113.423 0.514693 111.102 2.15897C110.336 2.70355 109.62 3.45709 109 4.44703C108.38 3.45709 107.665 2.70355 106.898 2.16003C104.578 0.514693 101.787 0.791202 99.7612 2.29934C98.186 3.46975 97.0743 5.38421 97.0045 7.71343C96.9663 8.95033 97.1627 10.3308 97.8642 11.727C98.966 13.9191 104.142 18.7928 108.96 23.0016L108.998 23.0417L109 23.0396L109.002 23.0417L109.042 23.0016C113.858 18.7938 119.033 13.9201 120.136 11.727C120.839 10.3308 121.033 8.94928 120.996 7.71237Z" fill="black" stroke="black" stroke-width="0.298667"/>
</svg>
