<svg width="954" height="165" viewBox="0 0 954 165" fill="none" xmlns="http://www.w3.org/2000/svg">
<path d="M35 119.5V60H86V68.5H94.5V85.5H86V94H94.5V111H86V119.5H35ZM52 85.5H77.5V68.5H52V85.5ZM52 111H77.5V94H52V111ZM111.5 119.5V111H103V68.5H111.5V60H154V68.5H162.5V111H154V119.5H111.5ZM120 111H145.5V68.5H120V111ZM171 119.5V60H188V68.5H196.5V77H205V68.5H213.5V60H230.5V119.5H213.5V85.5H205V102.5H196.5V85.5H188V119.5H171ZM239 119.5V60H290V68.5H298.5V85.5H290V94H298.5V111H290V119.5H239ZM256 85.5H281.5V68.5H256V85.5ZM256 111H281.5V94H256V111ZM307 119.5V60H366.5V68.5H324V85.5H358V94H324V111H366.5V119.5H307ZM375 119.5V60H426V68.5H434.5V94H417.5V102.5H426V111H434.5V119.5H409V111H400.5V102.5H392V119.5H375ZM392 94H409V85.5H417.5V68.5H392V94ZM443 119.5V60H460V68.5H468.5V77H477V68.5H485.5V60H502.5V119.5H485.5V85.5H477V102.5H468.5V85.5H460V119.5H443ZM511 119.5V77H519.5V68.5H528V60H553.5V68.5H562V77H570.5V119.5H553.5V102.5H528V119.5H511ZM528 94H553.5V77H545V68.5H536.5V77H528V94ZM579 119.5V60H596V68.5H604.5V77H613V85.5H621.5V60H638.5V119.5H621.5V102.5H613V94H604.5V85.5H596V119.5H579ZM715 119.5V60H757.5V68.5H766V77H774.5V102.5H766V111H757.5V119.5H715ZM732 111H749V102.5H757.5V77H749V68.5H732V111ZM791.5 119.5V111H783V68.5H791.5V60H834V68.5H842.5V111H834V119.5H791.5ZM800 111H825.5V68.5H800V111ZM851 119.5V60H868V68.5H876.5V77H885V68.5H893.5V60H910.5V119.5H893.5V85.5H885V102.5H876.5V85.5H868V119.5H851Z" fill="black"/>
<rect y="25" width="2.79847" height="27.4251" fill="#434343"/>
<rect x="1.39922" y="27.7985" width="2.79847" height="27.4251" transform="rotate(-90 1.39922 27.7985)" fill="#434343"/>
<rect x="954" y="25" width="2.79847" height="27.4251" transform="rotate(90 954 25)" fill="#434343"/>
<rect x="951.202" y="26.3993" width="2.79847" height="27.4251" fill="#434343"/>
<rect x="954" y="164.084" width="2.79847" height="27.4251" transform="rotate(-180 954 164.084)" fill="#434343"/>
<rect x="952.601" y="161.286" width="2.79847" height="27.4251" transform="rotate(90 952.601 161.286)" fill="#434343"/>
<rect y="164.084" width="2.79847" height="27.4251" transform="rotate(-90 0 164.084)" fill="#434343"/>
<rect x="2.79848" y="162.685" width="2.79847" height="27.4251" transform="rotate(-180 2.79848 162.685)" fill="#434343"/>
<path d="M114.046 65.3962L111.138 55.9314L119.165 53.4654C117.89 49.1712 115.5 38.4945 121.413 33.4798C127.253 28.5292 138.648 30.8275 156.165 40.4832C156.224 39.7953 156.197 39.0921 156.066 38.3896L155.286 34.1643L158.864 36.5406C160.828 37.8454 163.212 38.2074 165.404 37.534C167.593 36.8613 169.364 35.2244 170.257 33.0441L171.395 30.2658L173.335 32.5578C174.818 34.3124 177.019 35.2993 179.372 35.2623L183.077 35.2055L180.859 38.1739C179.35 40.1912 178.905 42.708 179.632 45.0748C180.053 46.4418 180.867 47.6753 181.991 48.6441L185.022 51.2586L181.06 51.829C180.665 51.8858 180.266 51.9367 179.872 52.0576C177.626 52.7477 175.838 54.4308 174.965 56.6773L174.131 58.8269L172.233 57.518C169.269 55.4716 165.29 55.639 162.521 58.2913L160.277 60.4484L158.922 55.2086C158.056 52.3912 156.054 50.1035 153.563 49.0844L150.613 47.8776L153.151 45.9485C153.881 45.3911 154.477 44.7174 154.956 43.9749C133.843 32.2488 126.361 34.0692 123.772 36.2595C119.842 39.5894 121.304 47.9309 122.636 52.4019L135.5 60L114.046 65.3962Z" fill="#010002"/>
</svg>
