<svg width="1001" height="147" viewBox="0 0 1001 147" fill="none" xmlns="http://www.w3.org/2000/svg">
<rect y="0.618103" width="2.93444" height="28.7575" fill="#434343"/>
<rect x="1.46729" y="3.55249" width="2.93444" height="28.7575" transform="rotate(-90 1.46729 3.55249)" fill="#434343"/>
<rect x="1000.35" y="0.618103" width="2.93444" height="28.7575" transform="rotate(90 1000.35 0.618103)" fill="#434343"/>
<rect x="997.415" y="2.08521" width="2.93444" height="28.7575" fill="#434343"/>
<rect x="1000.35" y="146.46" width="2.93444" height="28.7575" transform="rotate(-180 1000.35 146.46)" fill="#434343"/>
<rect x="998.882" y="143.525" width="2.93444" height="28.7575" transform="rotate(90 998.882 143.525)" fill="#434343"/>
<rect y="146.46" width="2.93444" height="28.7575" transform="rotate(-90 0 146.46)" fill="#434343"/>
<rect x="2.93433" y="144.992" width="2.93444" height="28.7575" transform="rotate(-180 2.93433 144.992)" fill="#434343"/>
<path d="M38.3931 94.8038V35.3038H89.3931V43.8038H97.8931V60.8038H89.3931V69.3038H97.8931V86.3038H89.3931V94.8038H38.3931ZM55.3931 60.8038H80.8931V43.8038H55.3931V60.8038ZM55.3931 86.3038H80.8931V69.3038H55.3931V86.3038Z" fill="black"/>
<path d="M218.969 84.8319V78.2031C206.724 73.322 199.514 68.7663 197.295 61.5014C195.474 55.538 200.966 47.604 211.32 38.0429C200.505 43.9697 192.545 47.9952 189.394 42.3755C186.564 37.3299 189.734 27.8748 194.746 15.4765H191.178C187.178 21.8055 183.774 26.6061 182.509 25.4215C181.408 24.3868 181.394 20.6647 181.873 15.4765L174.48 15.4728C169.588 26.4306 164.399 32.6389 156.886 33.7029C150.466 34.6133 142.155 27.0705 132.791 16.365C138.122 26.9462 140.082 35.4323 136.488 37.5273C132.239 40.0063 123.724 37.0849 111.117 31.7907V34.2111C119.79 39.7174 127.778 45.0885 126.287 47.0884C124.978 48.8434 119.003 48.54 111.117 47.4723V53.7209C122.528 59.4831 128.711 65.3953 128.711 70.9308C128.711 75.6913 119.201 85.4132 111.117 93.1133V96.8098C118.411 94.4186 127.362 93.4899 130.367 98.85C133.435 104.316 131.376 112.053 127.435 123.329H134.192C141.35 113.658 148.155 105.903 151.785 106.247C154.356 106.488 153.157 114.382 151.402 123.329H153.442C159.815 105.614 167.672 94.7586 179.321 95.1535C189.544 95.5045 199.244 105.793 209.916 113.128C204.337 106.301 194.059 96.5794 196.275 94.7696C198.604 92.8647 208.585 96.3491 218.969 100.122V96.8061C212.157 92.159 205.894 87.6947 207.496 86.097C208.936 84.6601 213.331 84.4297 218.969 84.8209V84.8319ZM186.64 76.9125C185.416 78.1336 193.072 82.6784 197.448 85.8264C190.831 83.5156 182.487 80.0422 180.929 81.3146C179.803 82.236 185.024 87.1756 187.865 90.649C182.436 86.916 177.463 81.6985 172.264 81.523C164.615 81.2634 160.235 90.4516 156.458 104.492C157.453 97.8262 160.44 87.384 158.294 87.1865C155.248 86.9013 147.888 97.7604 142.385 105.855C146.228 94.2102 149.72 87.5741 147.383 83.4096C145.274 79.6473 137.351 81.9361 133.921 83.9325C137.961 80.119 146.524 72.4482 146.524 69.2161C146.524 64.5141 138.042 59.2235 122.396 54.7702C131.8 56.251 143.924 58.9712 145.339 57.0773C146.447 55.5965 137.325 50.4485 131.775 46.7996C141.544 50.9897 147.734 53.8196 150.502 52.2072C152.33 51.1396 151.314 46.8325 148.601 41.4505C153.365 46.8947 157.635 50.7301 160.9 50.2657C167.789 49.2895 170.765 40.1745 176.132 22.778C174.871 32.4598 172.315 44.5876 173.887 46.0647C175.065 47.1725 179.869 38.2257 183.577 32.5329C179.394 43.0848 175.368 51.0189 177.397 54.6349C179.003 57.4941 183.072 55.4759 188.571 52.4631C183.306 57.3259 180.476 61.3588 181.401 64.3935C183.24 70.4153 191.847 72.7736 207.232 78.1629C199.331 77.1392 188.458 75.0843 186.633 76.9052L186.64 76.9125Z" fill="black"/>
<path d="M223.393 94.8038V35.3038H240.393V43.8038H248.893V52.3038H257.393V43.8038H265.893V35.3038H282.893V94.8038H265.893V60.8038H257.393V77.8038H248.893V60.8038H240.393V94.8038H223.393ZM291.393 94.8038V35.3038H342.393V43.8038H350.893V60.8038H342.393V69.3038H350.893V86.3038H342.393V94.8038H291.393ZM308.393 60.8038H333.893V43.8038H308.393V60.8038ZM308.393 86.3038H333.893V69.3038H308.393V86.3038ZM359.393 94.8038V35.3038H418.893V43.8038H376.393V60.8038H410.393V69.3038H376.393V86.3038H418.893V94.8038H359.393ZM427.393 94.8038V35.3038H478.393V43.8038H486.893V69.3038H469.893V77.8038H478.393V86.3038H486.893V94.8038H461.393V86.3038H452.893V77.8038H444.393V94.8038H427.393ZM444.393 69.3038H461.393V60.8038H469.893V43.8038H444.393V69.3038ZM495.393 94.8038V35.3038H512.393V43.8038H520.893V52.3038H529.393V43.8038H537.893V35.3038H554.893V94.8038H537.893V60.8038H529.393V77.8038H520.893V60.8038H512.393V94.8038H495.393ZM563.393 94.8038V52.3038H571.893V43.8038H580.393V35.3038H605.893V43.8038H614.393V52.3038H622.893V94.8038H605.893V77.8038H580.393V94.8038H563.393ZM580.393 69.3038H605.893V52.3038H597.393V43.8038H588.893V52.3038H580.393V69.3038ZM631.393 94.8038V35.3038H648.393V43.8038H656.893V52.3038H665.393V60.8038H673.893V35.3038H690.893V94.8038H673.893V77.8038H665.393V69.3038H656.893V60.8038H648.393V94.8038H631.393ZM767.393 94.8038V35.3038H809.893V43.8038H818.393V52.3038H826.893V77.8038H818.393V86.3038H809.893V94.8038H767.393ZM784.393 86.3038H801.393V77.8038H809.893V52.3038H801.393V43.8038H784.393V86.3038ZM843.893 94.8038V86.3038H835.393V43.8038H843.893V35.3038H886.393V43.8038H894.893V86.3038H886.393V94.8038H843.893ZM852.393 86.3038H877.893V43.8038H852.393V86.3038ZM903.393 94.8038V35.3038H920.393V43.8038H928.893V52.3038H937.393V43.8038H945.893V35.3038H962.893V94.8038H945.893V60.8038H937.393V77.8038H928.893V60.8038H920.393V94.8038H903.393Z" fill="black"/>
</svg>
