<svg width="205" height="32" viewBox="0 0 205 32" fill="none" xmlns="http://www.w3.org/2000/svg">
<path d="M11.96 17.261V11.764C11.96 11.4573 11.914 11.2657 11.822 11.189C11.73 11.097 11.5383 11.051 11.247 11.051H4.301V17.974H11.247C11.5383 17.974 11.73 17.928 11.822 17.836C11.914 17.744 11.96 17.5523 11.96 17.261ZM2.3 9.694H12.121C13.3323 9.694 13.938 10.2997 13.938 11.511V17.514C13.938 18.7253 13.3323 19.331 12.121 19.331H4.301V24H2.3V9.694ZM21.1604 12.845H23.5524V14.248H20.8614C19.8647 14.248 19.3664 14.823 19.3664 15.973V24H17.3884V12.845H19.3664V14.248C19.6117 13.3127 20.2097 12.845 21.1604 12.845ZM27.6041 17.606H34.4121V14.915C34.4121 14.6237 34.3661 14.432 34.2741 14.34C34.1821 14.248 33.9905 14.202 33.6991 14.202H28.3171C28.0258 14.202 27.8341 14.248 27.7421 14.34C27.6501 14.432 27.6041 14.6237 27.6041 14.915V17.606ZM27.4431 12.845H34.5501C35.7615 12.845 36.3671 13.4507 36.3671 14.662V18.963H27.6041V21.93C27.6041 22.2367 27.6501 22.436 27.7421 22.528C27.8341 22.6047 28.0258 22.643 28.3171 22.643H33.6301C33.9368 22.643 34.1285 22.6047 34.2051 22.528C34.2971 22.436 34.3431 22.2367 34.3431 21.93V20.849H36.2981V22.183C36.2981 23.3943 35.6925 24 34.4811 24H27.4431C26.2318 24 25.6261 23.3943 25.6261 22.183V14.662C25.6261 13.4507 26.2318 12.845 27.4431 12.845ZM47.6644 21.953V19.837C47.6644 19.5457 47.6184 19.354 47.5264 19.262C47.4498 19.17 47.2581 19.124 46.9514 19.124H41.6384C40.4271 19.124 39.8214 18.5183 39.8214 17.307V14.662C39.8214 13.4507 40.4271 12.845 41.6384 12.845H47.7564C48.9678 12.845 49.5734 13.4507 49.5734 14.662V15.858H47.6414V14.892C47.6414 14.5853 47.5954 14.3937 47.5034 14.317C47.4114 14.225 47.2198 14.179 46.9284 14.179H42.4894C42.1828 14.179 41.9834 14.225 41.8914 14.317C41.8148 14.3937 41.7764 14.5853 41.7764 14.892V17.054C41.7764 17.3607 41.8148 17.56 41.8914 17.652C41.9834 17.7287 42.1828 17.767 42.4894 17.767H47.8024C49.0138 17.767 49.6194 18.3727 49.6194 19.584V22.183C49.6194 23.3943 49.0138 24 47.8024 24H41.6844C40.4731 24 39.8674 23.3943 39.8674 22.183V20.987H41.8224V21.953C41.8224 22.2443 41.8608 22.436 41.9374 22.528C42.0294 22.62 42.2288 22.666 42.5354 22.666H46.9514C47.2581 22.666 47.4498 22.62 47.5264 22.528C47.6184 22.436 47.6644 22.2443 47.6644 21.953ZM60.9164 21.953V19.837C60.9164 19.5457 60.8704 19.354 60.7784 19.262C60.7017 19.17 60.5101 19.124 60.2034 19.124H54.8904C53.6791 19.124 53.0734 18.5183 53.0734 17.307V14.662C53.0734 13.4507 53.6791 12.845 54.8904 12.845H61.0084C62.2197 12.845 62.8254 13.4507 62.8254 14.662V15.858H60.8934V14.892C60.8934 14.5853 60.8474 14.3937 60.7554 14.317C60.6634 14.225 60.4717 14.179 60.1804 14.179H55.7414C55.4347 14.179 55.2354 14.225 55.1434 14.317C55.0667 14.3937 55.0284 14.5853 55.0284 14.892V17.054C55.0284 17.3607 55.0667 17.56 55.1434 17.652C55.2354 17.7287 55.4347 17.767 55.7414 17.767H61.0544C62.2657 17.767 62.8714 18.3727 62.8714 19.584V22.183C62.8714 23.3943 62.2657 24 61.0544 24H54.9364C53.7251 24 53.1194 23.3943 53.1194 22.183V20.987H55.0744V21.953C55.0744 22.2443 55.1127 22.436 55.1894 22.528C55.2814 22.62 55.4807 22.666 55.7874 22.666H60.2034C60.5101 22.666 60.7017 22.62 60.7784 22.528C60.8704 22.436 60.9164 22.2443 60.9164 21.953ZM81.5839 21.93V11.764C81.5839 11.4573 81.5379 11.2657 81.4459 11.189C81.3692 11.097 81.1775 11.051 80.8709 11.051H75.1209C74.8142 11.051 74.6149 11.097 74.5229 11.189C74.4462 11.2657 74.4079 11.4573 74.4079 11.764V21.93C74.4079 22.2367 74.4462 22.436 74.5229 22.528C74.6149 22.6047 74.8142 22.643 75.1209 22.643H80.8709C81.1775 22.643 81.3692 22.6047 81.4459 22.528C81.5379 22.436 81.5839 22.2367 81.5839 21.93ZM83.5619 11.511V22.183C83.5619 23.3943 82.9562 24 81.7449 24H80.8939L83.5389 26.231H81.0319L78.4329 24H74.2239C73.0125 24 72.4069 23.3943 72.4069 22.183V11.511C72.4069 10.2997 73.0125 9.694 74.2239 9.694H81.7449C82.9562 9.694 83.5619 10.2997 83.5619 11.511ZM98.9814 14.202H96.1754V21.815C96.1754 22.1063 96.2214 22.298 96.3134 22.39C96.4054 22.482 96.5971 22.528 96.8884 22.528H98.9584V24H96.0144C94.8031 24 94.1974 23.3943 94.1974 22.183V14.202H92.4034V12.845H94.1974V10.913H96.1754V12.845H98.9814V14.202ZM110.371 21.93V14.915C110.371 14.6237 110.325 14.432 110.233 14.34C110.157 14.248 109.965 14.202 109.658 14.202H104.414C104.108 14.202 103.908 14.248 103.816 14.34C103.74 14.432 103.701 14.6237 103.701 14.915V21.93C103.701 22.2367 103.74 22.436 103.816 22.528C103.908 22.6047 104.108 22.643 104.414 22.643H109.658C109.965 22.643 110.157 22.6047 110.233 22.528C110.325 22.436 110.371 22.2367 110.371 21.93ZM103.563 12.845H110.509C111.721 12.845 112.326 13.4507 112.326 14.662V22.183C112.326 23.3943 111.721 24 110.509 24H103.563C102.352 24 101.746 23.3943 101.746 22.183V14.662C101.746 13.4507 102.352 12.845 103.563 12.845ZM125.816 22.643H131.106C131.382 22.643 131.582 22.5817 131.704 22.459C131.827 22.3363 131.888 22.1293 131.888 21.838V15.007C131.888 14.7157 131.827 14.5087 131.704 14.386C131.582 14.2633 131.382 14.202 131.106 14.202H125.816C125.51 14.202 125.31 14.248 125.218 14.34C125.142 14.432 125.103 14.6237 125.103 14.915V21.93C125.103 22.2367 125.142 22.436 125.218 22.528C125.31 22.6047 125.51 22.643 125.816 22.643ZM131.888 12.845H133.866V27.243H131.888V23.264C131.689 23.7547 131.267 24 130.623 24H124.942C123.731 24 123.125 23.3943 123.125 22.183V14.662C123.125 13.4507 123.731 12.845 124.942 12.845H130.623C131.267 12.845 131.689 13.0903 131.888 13.581V12.845ZM145.341 12.845H147.319V24H145.341V23.264C145.141 23.7547 144.72 24 144.076 24H138.625C137.413 24 136.808 23.3943 136.808 22.183V12.845H138.786V21.93C138.786 22.2367 138.832 22.436 138.924 22.528C139.016 22.6047 139.207 22.643 139.499 22.643H144.559C144.835 22.643 145.034 22.5817 145.157 22.459C145.279 22.3363 145.341 22.1293 145.341 21.838V12.845ZM153.666 24H151.688V12.845H153.666V24ZM151.642 10.568V8.59H153.735V10.568H151.642ZM163.467 14.202H160.661V21.815C160.661 22.1063 160.707 22.298 160.799 22.39C160.891 22.482 161.082 22.528 161.374 22.528H163.444V24H160.5C159.288 24 158.683 23.3943 158.683 22.183V14.202H156.889V12.845H158.683V10.913H160.661V12.845H163.467V14.202Z" fill="black"/>
<path d="M204.33 0.334961H173V31.665H204.33V0.334961Z" fill="white" fill-opacity="0.01"/>
<path d="M195.845 17.7061L182.886 5.10886C182.129 4.3732 180.919 4.39031 180.184 5.14707C180.157 5.17455 180.131 5.20281 180.106 5.23183C179.36 6.09779 179.411 7.39337 180.223 8.1977L186.766 14.6791" stroke="black" stroke-width="2.13333" stroke-linecap="round"/>
<path d="M186.766 14.679L179.643 7.61582C178.798 6.77849 177.452 6.73268 176.552 7.51067C175.725 8.22577 175.635 9.47571 176.35 10.3024C176.377 10.3338 176.405 10.3642 176.434 10.3939L183.61 17.706" stroke="black" stroke-width="2.13333" stroke-linecap="round" stroke-linejoin="round"/>
<path d="M183.61 17.7061L179.527 13.7156C178.704 12.8738 177.356 12.8504 176.503 13.6631C175.66 14.4671 175.628 15.8028 176.432 16.6463C176.435 16.6502 176.439 16.654 176.443 16.6579C182.467 22.8824 185.594 25.8224 186.767 26.8046C188.665 28.3948 192.409 29.0542 194.364 27.7488C196.319 26.4434 198.086 24.5861 198.925 22.7417C199.424 21.6437 200.394 18.2581 201.834 12.585C202.128 11.4302 201.429 10.2563 200.274 9.96311C200.259 9.95932 200.244 9.95566 200.229 9.9522C199.033 9.67565 197.831 10.3943 197.51 11.5795L195.845 17.7061" stroke="black" stroke-width="2.13333" stroke-linecap="round"/>
<path d="M193.701 8.60222C193.236 7.90813 192.705 7.26228 192.117 6.6738C191.528 6.08533 190.883 5.55421 190.188 5.08955C189.843 4.85835 189.486 4.64361 189.118 4.44645C188.752 4.25044 188.375 4.07179 187.989 3.91162" stroke="black" stroke-width="2.13333" stroke-linecap="round"/>
<path d="M176.391 22.3811C176.818 23.0985 177.315 23.7713 177.872 24.3897C178.429 25.0082 179.046 25.5724 179.715 26.0728C180.047 26.3217 180.393 26.5548 180.75 26.771C181.105 26.9859 181.472 27.1841 181.85 27.3642" stroke="black" stroke-width="2.13333" stroke-linecap="round"/>
</svg>
