<svg width="91" height="91" viewBox="0 0 91 91" fill="none" xmlns="http://www.w3.org/2000/svg">
<rect y="91" width="2.23903" height="23.5129" transform="rotate(-90 0 91)" fill="#434343"/>
<rect x="2.39941" y="89.8801" width="2.39928" height="21.9425" transform="rotate(-180 2.39941 89.8801)" fill="#434343"/>
<rect width="2.39928" height="21.9425" fill="#434343"/>
<rect x="1.19971" y="2.23895" width="2.23903" height="23.5129" transform="rotate(-90 1.19971 2.23895)" fill="#434343"/>
<rect x="91" width="2.23903" height="23.5129" transform="rotate(90 91 0)" fill="#434343"/>
<rect x="88.6006" y="1.11938" width="2.39928" height="21.9425" fill="#434343"/>
<rect x="91" y="90.9166" width="2.39928" height="21.9425" transform="rotate(-180 91 90.9166)" fill="#434343"/>
<rect x="89.8008" y="88.6775" width="2.23903" height="23.5129" transform="rotate(90 89.8008 88.6775)" fill="#434343"/>
<g filter="url(#filter0_d_432_185)">
<rect x="14.0547" y="17.9529" width="59.1792" height="59.1792" rx="16" transform="rotate(-3.83 14.0547 17.9529)" fill="black"/>
</g>
<g filter="url(#filter1_d_432_185)">
<rect x="14.1821" y="17.8168" width="55.2339" height="55.2339" rx="6" transform="rotate(-3.83 14.1821 17.8168)" fill="white"/>
<rect x="11.5207" y="15.4894" width="60.2339" height="60.2339" rx="8.5" transform="rotate(-3.83 11.5207 15.4894)" stroke="black" stroke-width="5"/>
</g>
<g clip-path="url(#clip0_432_185)">
<path fill-rule="evenodd" clip-rule="evenodd" d="M63.8678 19.6851C65.1005 19.8941 64.8427 21.5942 64.9491 22.9286C65.1359 23.2375 65.8904 22.9796 66.3018 23.0638C66.52 23.3401 67.298 23.0582 67.5184 23.3344C68.6429 23.2 69.3075 23.5277 69.544 24.2813C69.6692 25.713 68.7023 26.0499 68.0577 26.714C67.8186 27.4659 67.4905 28.1296 66.8421 28.4699C67.2073 29.5011 68.0058 30.0971 68.3279 31.1754C68.4405 31.9209 68.2982 32.6827 67.9238 33.3371C67.8174 33.3295 67.711 33.3507 67.6157 33.3984C67.5203 33.446 67.4396 33.5185 67.3818 33.6081C66.8267 33.6816 66.2622 33.5872 65.7612 33.3371C65.2864 33.1814 65.1817 32.6542 64.5446 32.6625C64.2392 32.8056 64.4914 33.5125 64.4085 33.8782C64.3378 34.2557 64.2103 34.5803 64.1388 34.96C63.8098 35.4858 63.6945 36.2254 62.9213 36.3127C61.9613 36.3297 61.8352 35.5067 61.5712 34.8269C61.3243 34.1244 61.143 33.4006 61.0297 32.6647C60.1325 32.8021 60.0304 33.736 58.8675 33.6103C58.5319 33.3162 58.1052 33.1115 58.1911 32.3933C58.1811 31.8177 57.9655 31.4481 58.0572 30.7704C58.0175 30.4497 57.692 30.9219 57.6518 31.0432C57.3965 31.0567 57.5575 31.4896 57.2455 31.4464C57.126 31.8696 56.608 31.8915 56.4352 32.2589C55.796 32.7626 55.118 33.2149 54.4074 33.6116C54.1932 33.623 53.8917 33.5453 53.8668 33.7464H51.2992C51.2556 33.5623 50.9593 33.6343 50.7577 33.6116C50.3876 33.3279 49.9778 33.1 49.5416 32.9352C47.965 31.4516 47.4575 28.8932 46.4333 26.8532C45.9651 26.0616 45.061 25.7034 44.1354 25.3674C42.6082 25.2365 41.8663 25.891 40.4874 25.9067C38.985 26.5229 38.1629 27.8184 37.3775 29.1507C37.2715 29.7303 37.2266 30.3194 37.2435 30.9083C37.394 31.2526 38.2877 30.8534 38.4592 31.1789C39.4004 31.2291 40.566 31.0536 41.2978 31.3133C42.253 32.0647 41.6207 33.8198 41.7031 35.2323C41.7219 35.6202 42.6304 35.1171 42.6492 35.5037C43.0148 35.4694 43.3835 35.5152 43.7296 35.6377C44.4151 35.7655 44.9728 36.0182 45.6221 36.1792C46.0952 36.516 46.84 36.5837 47.2445 36.9891C47.8768 37.1226 48.0976 37.6672 48.7308 37.8011C50.1996 39.1767 51.3483 40.8582 52.0956 42.7267C52.8428 44.5952 53.1704 46.6051 53.0552 48.6142C52.9464 50.6898 52.5364 52.7386 51.8381 54.6963C51.078 56.3667 50.4854 58.2081 49.4067 59.5608C49.0646 60.4358 48.4354 61.0218 47.9196 61.7239C47.3283 62.3483 46.8335 63.0696 46.028 63.4807C45.4386 64.1443 44.6965 64.6543 43.8658 64.9665C43.2413 65.5137 42.1639 65.6088 41.4322 66.0483C40.4215 66.1661 39.2503 66.1168 38.3239 66.3188C35.9453 66.1312 33.6719 65.8349 31.837 65.1027C30.0269 64.3888 28.3247 63.568 27.105 62.2641C26.2175 61.8902 25.8549 60.9926 25.079 60.506C24.5859 59.7507 24.044 59.0284 23.4566 58.3438C23.2921 57.9079 23.065 57.4982 22.7824 57.1277C22.6724 56.6515 22.4893 56.1951 22.2396 55.7749C21.9343 54.7578 21.7084 53.7184 21.5641 52.6663C21.4973 50.5718 21.8233 48.8699 21.9699 46.9901C22.1721 46.569 22.2649 46.1038 22.2396 45.6373C22.4909 45.3925 22.4141 44.8231 22.6463 44.5565C22.9081 43.8256 23.0534 42.9825 23.5919 42.5304C23.7263 41.6272 24.544 41.409 24.8076 40.6366C25.2649 40.5974 25.2003 40.0384 25.6196 39.9616C25.9072 39.7534 26.1228 39.4737 26.4308 39.2852C26.9183 38.7198 27.5157 38.2596 28.1868 37.9325C28.4822 37.719 28.7995 37.5374 29.1332 37.3909C29.5062 37.2914 29.8686 37.1555 30.215 36.9851C31.1161 36.9851 32.1315 37.0999 32.5125 36.5811C32.3148 35.8772 32.2733 35.0189 32.1062 34.284C31.9096 33.4845 31.9096 32.6492 32.1062 31.8496C32.6552 31.0471 34.1065 31.1466 35.4854 31.1749C35.7708 30.8259 35.5033 29.9305 35.8908 29.6878C35.9423 29.107 36.2538 28.7898 36.2966 28.2003C37.2723 27.2839 37.9482 26.0691 38.8655 25.0934C39.2817 24.974 39.6559 24.7397 39.945 24.4174C41.4117 24.17 42.5144 23.5622 44.4064 23.7406C45.1557 23.9972 45.9965 24.1399 46.569 24.6871C46.8003 24.9092 47.4575 25.274 47.7848 25.6331C47.9811 25.8487 47.9737 26.2506 48.3254 26.3091C49.1545 28.2291 49.7287 30.4026 51.4354 31.4438C51.9909 31.3382 52.127 31.6532 52.6511 31.5808C53.0634 31.6785 53.0477 31.3451 53.4605 31.4438C55.141 30.6461 56.2842 29.3125 57.3799 27.9306C57.3363 27.4824 56.7909 28.2854 56.7045 27.7949C56.1991 27.9402 56.3196 27.4598 55.8941 27.5248C55.3369 26.7319 54.5144 26.2017 54.678 24.6884C55.0493 24.1451 56.0373 24.0112 56.8415 24.2835C57.0274 24.1089 56.9218 23.6459 57.1098 23.4727C57.03 23.2309 57.5078 22.9111 57.1098 22.7972C57.0361 22.0458 57.1347 21.4694 57.6518 21.3088C57.8085 21.3315 57.8918 21.28 57.921 21.1753C59.1738 21.1818 59.2563 22.3626 60.2198 22.6589C60.7871 22.1038 60.9891 21.1779 61.5725 20.632C62.2616 20.1567 63.0441 19.8339 63.8678 19.6851ZM60.6234 24.2813H59.677C59.4745 24.0343 59.0949 23.9619 58.8671 23.7397C58.7829 23.5962 58.302 22.8775 58.3264 23.4705C58.7436 24.3275 58.8025 26.2345 57.5152 26.1729C57.4891 26.2996 57.5008 26.4311 57.5488 26.5512C57.5969 26.6713 57.6791 26.7746 57.7853 26.8484C57.9621 27.1844 57.3895 27.4083 57.7853 27.5239C58.2549 26.8693 59.3074 26.793 60.4908 26.8484C61.1719 27.2944 61.8522 27.7395 61.9783 28.7422C61.9039 28.9849 61.7633 29.2018 61.5721 29.3688C61.381 29.5357 61.147 29.6459 60.8966 29.687C60.448 29.5958 60.0706 29.4308 59.951 29.011C59.7307 28.9616 59.501 28.9732 59.2868 29.0447C59.0725 29.1161 58.8819 29.2446 58.7353 29.4164C58.8662 29.8685 59.1642 30.1582 59.2746 30.633C59.2813 31.2284 59.3721 31.8198 59.5443 32.3898C60.3127 32.3898 60.5322 31.8452 61.4377 31.9857C61.4665 32.09 61.5516 32.1411 61.7074 32.1192C61.9155 33.0356 62.5111 33.5689 62.9231 34.2832C63.0504 33.5448 63.4331 32.8746 64.0044 32.3898C63.9843 32.0542 63.9808 31.7352 64.2749 31.7134C64.9037 31.425 65.5989 31.8116 66.3036 31.8487C66.0531 30.8381 65.1957 30.434 65.3563 29.0123C65.2843 28.5345 65.8363 28.6807 65.7629 28.2007C65.0613 27.2922 66.0413 26.0438 66.3036 25.2282C65.4542 25.0943 64.593 25.0493 63.7343 25.0938C63.4938 24.7482 63.1544 24.5021 63.0588 24.012V21.7137C63.1347 21.7137 63.2137 21.6046 63.0588 21.5776C61.9151 22.1475 62.0141 23.9579 60.6234 24.2795V24.2813ZM25.7549 43.473C25.7676 43.6366 25.5568 43.555 25.7549 43.473C26.4941 42.9494 27.1351 42.3319 27.9162 41.8519C28.3762 41.6774 28.6982 41.3719 29.1328 41.1751C29.43 41.0542 30.1971 40.6279 30.349 41.1751C29.951 42.2616 29.0905 42.8896 28.4573 43.7435C27.6116 44.3837 27.0047 45.2643 26.1599 45.9062C26.1599 46.3569 25.7196 46.3669 25.7549 46.85C25.5538 46.8936 25.1728 47.4199 25.4831 47.5277C25.6816 46.9146 26.2716 46.6916 26.5644 46.1749C27.0186 45.8656 27.2652 45.3459 28.1863 45.5003C28.3085 45.7395 28.5127 45.8931 28.5922 46.1749C27.894 47.2357 26.9567 48.0557 26.4304 49.2845C25.6831 50.3985 25.1339 51.6332 24.8071 52.9342C25.4146 52.864 25.3618 52.1348 25.7549 51.8529C25.9888 51.4554 26.1538 50.9898 26.5644 50.7703C26.6264 50.203 27.2045 50.1485 27.3764 49.6907C27.7626 49.4437 27.9756 49.0283 28.7292 49.1488C28.9954 50.1603 28.2396 51.1342 28.0533 52.1226C27.486 52.8644 27.4035 54.0862 26.8371 54.828C26.8952 55.5624 26.327 56.2384 26.7018 56.8554C27.2015 56.9496 26.9349 56.2772 27.2421 56.1808C27.208 55.7832 27.5475 55.7632 27.5122 55.3683C28.0275 55.1173 27.9429 54.2678 28.4586 54.0155C28.5673 53.3588 29.0722 53.0966 29.2694 52.5289C29.6351 52.1732 29.793 51.6099 30.4868 51.5815C31.2976 51.8939 30.6701 53.0839 30.6208 53.7446C30.407 53.9815 30.4397 54.4659 30.3503 54.8263C30.2333 54.9917 29.9209 55.6397 30.2159 55.7723C30.5959 55.1614 30.9402 54.5139 31.8378 54.4196C32.234 54.4297 32.3392 54.729 32.5133 54.9611C32.5999 55.5048 32.5535 56.0613 32.3781 56.5831C32.1996 57.0343 32.2589 57.7264 31.9722 58.0693C32.0394 58.6611 32.536 57.6295 33.054 57.7993C34.4504 58.5886 33.081 60.4755 33.054 61.8548C33.5144 61.8889 33.7024 62.1952 34.2697 62.1249C34.6061 61.3351 34.5594 60.1613 35.7564 60.2328C36.2569 60.3201 36.1692 60.9913 36.1626 61.5834C36.1753 61.747 35.965 61.6667 36.1626 61.5834C36.3394 61.5363 36.3738 61.3451 36.5676 61.3137C37.1388 61.7195 36.0911 62.9204 36.8377 63.071C37.4848 63.2211 37.4608 62.7027 37.5132 62.2598C37.7087 61.9737 37.8468 61.6524 37.9199 61.3137C38.3933 60.8865 38.4256 60.0168 39.5414 60.2328C39.9289 61.2801 39.2281 62.2056 39.2726 63.3406C39.7354 63.2528 40.1877 63.1169 40.6223 62.9352C40.6292 62.4553 40.7699 61.9868 41.0285 61.5825C41.3034 61.3207 41.3104 60.7861 41.838 60.7713C42.5959 60.8586 41.9602 61.9779 42.2438 62.2589C43.0729 61.5109 44.231 61.0925 45.0824 60.3659C45.9878 59.6952 46.6642 58.795 47.5146 58.0685C47.7673 57.3302 48.3346 56.9056 48.5968 56.1782C48.9642 55.5982 49.1951 54.8826 49.5424 54.2848C50.0801 52.8373 50.4871 51.3447 50.7586 49.8247C50.7895 48.6063 50.7443 47.3872 50.6233 46.1745C50.1869 45.4419 50.0403 44.4164 49.5424 43.7431C49.2937 42.8206 48.7046 42.2377 48.3263 41.4457C47.6517 40.9949 47.1106 40.4089 46.4342 39.9581C45.7142 39.5959 45.1587 39.0705 44.4073 38.7424C43.6689 38.2647 42.8408 37.9426 41.9737 37.7959C41.2829 37.4032 40.2522 37.3547 39.8106 36.7142C39.8255 35.8715 40.0358 35.2266 39.9459 34.2827C39.7176 33.9733 39.4445 33.6996 39.1356 33.4707H34.2684C34.2182 34.0816 34.0912 34.4782 34.405 34.9582C34.8012 34.3639 35.8013 34.3753 36.5663 34.1457C36.7775 34.3408 37.0362 34.4878 37.1074 34.823C36.9009 35.3797 36.5784 35.8861 36.1613 36.3088C35.725 36.6845 35.6032 37.3726 35.0796 37.6615C34.9984 37.8954 34.4386 37.6515 34.405 37.9325C34.3836 38.1816 33.9455 38.0154 33.8639 38.203H32.9178C32.3816 38.5678 31.5271 38.615 31.024 39.0129C30.2425 39.1307 29.7974 39.5872 29.1328 39.8254C28.1903 40.6393 27.1962 41.4011 26.2965 42.2568C26.2127 42.7604 25.7872 42.9188 25.7549 43.473Z" fill="black"/>
</g>
<defs>
<filter id="filter0_d_432_185" x="11.0869" y="15.0324" width="68.9355" height="68.9352" filterUnits="userSpaceOnUse" color-interpolation-filters="sRGB">
<feFlood flood-opacity="0" result="BackgroundImageFix"/>
<feColorMatrix in="SourceAlpha" type="matrix" values="0 0 0 0 0 0 0 0 0 0 0 0 0 0 0 0 0 0 127 0" result="hardAlpha"/>
<feOffset dy="4"/>
<feGaussianBlur stdDeviation="2"/>
<feComposite in2="hardAlpha" operator="out"/>
<feColorMatrix type="matrix" values="0 0 0 0 0 0 0 0 0 0 0 0 0 0 0 0 0 0 0.25 0"/>
<feBlend mode="normal" in2="BackgroundImageFix" result="effect1_dropShadow_432_185"/>
<feBlend mode="normal" in="SourceGraphic" in2="effect1_dropShadow_432_185" result="shape"/>
</filter>
<filter id="filter1_d_432_185" x="5.56885" y="9.51434" width="76.0264" height="76.0261" filterUnits="userSpaceOnUse" color-interpolation-filters="sRGB">
<feFlood flood-opacity="0" result="BackgroundImageFix"/>
<feColorMatrix in="SourceAlpha" type="matrix" values="0 0 0 0 0 0 0 0 0 0 0 0 0 0 0 0 0 0 127 0" result="hardAlpha"/>
<feOffset dy="4"/>
<feGaussianBlur stdDeviation="2"/>
<feComposite in2="hardAlpha" operator="out"/>
<feColorMatrix type="matrix" values="0 0 0 0 0 0 0 0 0 0 0 0 0 0 0 0 0 0 0.25 0"/>
<feBlend mode="normal" in2="BackgroundImageFix" result="effect1_dropShadow_432_185"/>
<feBlend mode="normal" in="SourceGraphic" in2="effect1_dropShadow_432_185" result="shape"/>
</filter>
<clipPath id="clip0_432_185">
<rect width="48" height="48" fill="white" transform="translate(21.5547 19)"/>
</clipPath>
</defs>
</svg>
