<svg width="91" height="91" viewBox="0 0 91 91" fill="none" xmlns="http://www.w3.org/2000/svg">
<rect y="91" width="2.23903" height="23.5129" transform="rotate(-90 0 91)" fill="#434343"/>
<rect x="2.39941" y="89.8801" width="2.39928" height="21.9425" transform="rotate(-180 2.39941 89.8801)" fill="#434343"/>
<rect width="2.39928" height="21.9425" fill="#434343"/>
<rect x="1.19971" y="2.23895" width="2.23903" height="23.5129" transform="rotate(-90 1.19971 2.23895)" fill="#434343"/>
<rect x="91" width="2.23903" height="23.5129" transform="rotate(90 91 0)" fill="#434343"/>
<rect x="88.6006" y="1.11938" width="2.39928" height="21.9425" fill="#434343"/>
<rect x="91" y="90.9166" width="2.39928" height="21.9425" transform="rotate(-180 91 90.9166)" fill="#434343"/>
<rect x="89.8008" y="88.6775" width="2.23903" height="23.5129" transform="rotate(90 89.8008 88.6775)" fill="#434343"/>
<g filter="url(#filter0_d_432_187)">
<rect x="13.8423" y="17.9529" width="59.1792" height="59.1792" rx="16" transform="rotate(-3.83 13.8423 17.9529)" fill="black"/>
</g>
<g filter="url(#filter1_d_432_187)">
<rect x="13.9697" y="17.8168" width="55.2339" height="55.2339" rx="6" transform="rotate(-3.83 13.9697 17.8168)" fill="white"/>
<rect x="11.3083" y="15.4894" width="60.2339" height="60.2339" rx="8.5" transform="rotate(-3.83 11.3083 15.4894)" stroke="black" stroke-width="5"/>
</g>
<path d="M66.6395 46.3948H61.8064L60.4545 37.6054C61.3256 38.1837 62.3697 38.5213 63.4919 38.5213C66.5294 38.5213 69.0002 36.0489 69.0002 33.0124C69.0002 29.9758 66.5294 27.5041 63.4919 27.5041C60.4545 27.5041 57.9837 29.9749 57.9837 33.0124C57.9837 33.6506 58.0985 34.2611 58.2993 34.8317L55.2887 32.2539C54.6765 31.7298 53.8967 31.4443 53.0916 31.4443H42.246C40.9445 31.4443 39.8853 32.5034 39.8853 33.805C39.8853 35.1067 40.9443 36.1658 42.246 36.1658H51.9884L43.7993 42.597C42.3121 43.7655 41.459 45.5194 41.459 47.4111C41.459 49.5043 42.5104 51.4289 44.2722 52.562L51.5744 57.2558L45.4187 59.821C44.8003 60.0783 44.314 60.5866 44.0841 61.2146C43.8543 61.8441 43.8976 62.5468 44.2045 63.1433C44.6294 63.9678 45.4714 64.4479 46.3472 64.4479C46.6722 64.4479 47.0019 64.3818 47.3158 64.2426L55.8015 60.497C57.1267 59.8801 57.9835 58.5353 57.9835 57.0716C57.9835 56.0755 57.5798 55.1012 56.8756 54.3986L52.0527 49.5751L56.5993 45.5958L56.9503 48.4026C57.143 49.9488 58.4626 51.1165 60.0199 51.1165H66.6391C67.9406 51.1165 68.9999 50.0574 68.9999 48.7557C69.0002 47.4539 67.9411 46.3948 66.6395 46.3948ZM63.4919 29.077C65.6613 29.077 67.4264 30.842 67.4264 33.0115C67.4264 35.1811 65.6615 36.946 63.4919 36.946C61.3226 36.946 59.5574 35.1811 59.5574 33.0115C59.5574 30.842 61.3226 29.077 63.4919 29.077ZM66.6395 49.5424H60.0202C59.2554 49.5424 58.607 48.9671 58.5118 48.2078L57.7933 42.462L49.7497 49.4984L55.7631 55.5118C56.1747 55.9217 56.4099 56.49 56.4099 57.0721C56.4099 57.9259 55.9095 58.7112 55.1509 59.0652L46.6792 62.8037C46.2763 62.9838 45.8041 62.8154 45.6027 62.4244C45.4949 62.2143 45.4806 61.9783 45.5611 61.7563C45.6421 61.5361 45.8058 61.3645 46.023 61.274L52.7107 58.4878C53.1491 58.306 53.4474 57.8992 53.489 57.4263C53.5306 56.9534 53.3089 56.5002 52.9098 56.2444L45.1229 51.238C43.8144 50.3953 43.033 48.9647 43.033 47.4091C43.033 46.0037 43.6672 44.699 44.7719 43.8303L54.4458 36.2329L52.8012 34.5915H42.246C41.8124 34.5915 41.459 34.239 41.459 33.8045C41.459 33.3701 41.8124 33.0176 42.246 33.0176H53.0916C53.5212 33.0176 53.9375 33.1686 54.264 33.448L58.824 37.3588L60.456 47.9684H66.6393C67.0729 47.9684 67.4263 48.321 67.4263 48.7554C67.4263 49.1899 67.0731 49.5424 66.6395 49.5424Z" fill="black"/>
<path d="M32.5815 62.5235C32.1865 62.9729 31.5216 63.0499 31.0361 62.7036C30.7702 62.5139 30.6001 62.2307 30.5585 61.9073C30.5169 61.5831 30.6089 61.2675 30.8182 61.0166L41.2774 48.4657L40.0688 47.4576L29.6087 60.0092C29.1232 60.5915 28.9005 61.3572 28.9973 62.1094C29.0942 62.8616 29.5041 63.5455 30.1217 63.9862C30.6033 64.3293 31.158 64.496 31.7096 64.496C32.4714 64.496 33.2259 64.1765 33.7649 63.5611L42.8377 53.2026L41.6534 52.1655L32.5815 62.5235Z" fill="black"/>
<path d="M44.6064 37.739H27.2949V39.3128H44.6064V37.739Z" fill="black"/>
<path d="M26.7213 37.7391H23.5737V39.3128H26.7213V37.7391Z" fill="black"/>
<path d="M40.672 40.8866H28.8687V42.4604H40.672V40.8866Z" fill="black"/>
<path d="M27.295 40.8866H24.1475V42.4604H27.295V40.8866Z" fill="black"/>
<path d="M39.8853 44.0341H29.6558V45.6079H39.8853V44.0341Z" fill="black"/>
<path d="M28.0819 44.0341H25.7212V45.6079H28.0819V44.0341Z" fill="black"/>
<path d="M39.0983 34.5915H25.7212V36.1653H39.0983V34.5915Z" fill="black"/>
<path d="M24.1475 34.5915H21V36.1653H24.1475V34.5915Z" fill="black"/>
<path d="M39.0984 36.1653H22.5737V37.7391H39.0984V36.1653Z" fill="#F9BA48"/>
<path d="M44.6064 39.3128H24.1475V40.8866H44.6064V39.3128Z" fill="#F9BA48"/>
<path d="M40.6721 42.4603H25.7212V44.0341H40.6721V42.4603Z" fill="#F9BA48"/>
<path d="M39.8851 45.6078H27.2949V47.1816H39.8851V45.6078Z" fill="#F9BA48"/>
<defs>
<filter id="filter0_d_432_187" x="10.8745" y="15.0324" width="68.9355" height="68.9352" filterUnits="userSpaceOnUse" color-interpolation-filters="sRGB">
<feFlood flood-opacity="0" result="BackgroundImageFix"/>
<feColorMatrix in="SourceAlpha" type="matrix" values="0 0 0 0 0 0 0 0 0 0 0 0 0 0 0 0 0 0 127 0" result="hardAlpha"/>
<feOffset dy="4"/>
<feGaussianBlur stdDeviation="2"/>
<feComposite in2="hardAlpha" operator="out"/>
<feColorMatrix type="matrix" values="0 0 0 0 0 0 0 0 0 0 0 0 0 0 0 0 0 0 0.25 0"/>
<feBlend mode="normal" in2="BackgroundImageFix" result="effect1_dropShadow_432_187"/>
<feBlend mode="normal" in="SourceGraphic" in2="effect1_dropShadow_432_187" result="shape"/>
</filter>
<filter id="filter1_d_432_187" x="5.35645" y="9.51434" width="76.0264" height="76.0261" filterUnits="userSpaceOnUse" color-interpolation-filters="sRGB">
<feFlood flood-opacity="0" result="BackgroundImageFix"/>
<feColorMatrix in="SourceAlpha" type="matrix" values="0 0 0 0 0 0 0 0 0 0 0 0 0 0 0 0 0 0 127 0" result="hardAlpha"/>
<feOffset dy="4"/>
<feGaussianBlur stdDeviation="2"/>
<feComposite in2="hardAlpha" operator="out"/>
<feColorMatrix type="matrix" values="0 0 0 0 0 0 0 0 0 0 0 0 0 0 0 0 0 0 0.25 0"/>
<feBlend mode="normal" in2="BackgroundImageFix" result="effect1_dropShadow_432_187"/>
<feBlend mode="normal" in="SourceGraphic" in2="effect1_dropShadow_432_187" result="shape"/>
</filter>
</defs>
</svg>
