<svg width="29" height="29" viewBox="0 0 29 29" fill="none" xmlns="http://www.w3.org/2000/svg">
<path d="M28.5 14.5835C28.5 22.3155 22.232 28.5835 14.5 28.5835C6.76801 28.5835 0.5 22.3155 0.5 14.5835C0.5 6.85151 6.76801 0.583496 14.5 0.583496C22.232 0.583496 28.5 6.85151 28.5 14.5835Z" fill="#00A6ED"/>
<path d="M15.2719 14.2241H10.0168ZM9.86784 14.9109L8.99963 17.4968C8.52411 18.9131 8.28635 19.6212 8.45698 20.0572C8.60515 20.436 8.92339 20.723 9.31608 20.8324C9.76827 20.9582 10.4513 20.6517 11.8172 20.0389L20.5744 16.1097C21.9077 15.5114 22.5744 15.2124 22.7804 14.7968C22.9594 14.4358 22.9594 14.0122 22.7804 13.6512C22.5744 13.2358 21.9077 12.9366 20.5744 12.3384L11.8021 8.40246C10.4403 7.79143 9.75935 7.48591 9.3076 7.61124C8.91528 7.72008 8.59708 8.00642 8.44839 8.38442C8.27718 8.81967 8.51239 9.52627 8.98284 10.9395L9.86953 13.6031C9.95032 13.8458 9.99073 13.9672 10.0067 14.0913C10.0208 14.2015 10.0207 14.313 10.0062 14.4231C9.98997 14.5471 9.94927 14.6684 9.86784 14.9109Z" fill="#00A6ED"/>
<path d="M15.2719 14.2241H10.0168M9.86784 14.9109L8.99963 17.4968C8.52411 18.9131 8.28635 19.6212 8.45698 20.0572C8.60515 20.436 8.92339 20.723 9.31608 20.8324C9.76827 20.9582 10.4513 20.6517 11.8172 20.0389L20.5744 16.1097C21.9077 15.5114 22.5744 15.2124 22.7804 14.7968C22.9594 14.4358 22.9594 14.0122 22.7804 13.6512C22.5744 13.2358 21.9077 12.9366 20.5744 12.3384L11.8021 8.40246C10.4403 7.79143 9.75935 7.48591 9.3076 7.61124C8.91528 7.72008 8.59708 8.00642 8.44839 8.38442C8.27718 8.81967 8.51239 9.52627 8.98284 10.9395L9.86953 13.6031C9.95032 13.8458 9.99073 13.9672 10.0067 14.0913C10.0208 14.2015 10.0207 14.313 10.0062 14.4231C9.98997 14.5471 9.94927 14.6684 9.86784 14.9109Z" stroke="#EDF6F9" stroke-width="1.6" stroke-linecap="round" stroke-linejoin="round"/>
</svg>
