<svg width="29" height="28" viewBox="0 0 29 28" fill="none" xmlns="http://www.w3.org/2000/svg">
<path d="M28.8491 14C28.8491 21.732 22.5811 28 14.8491 28C7.11713 28 0.849121 21.732 0.849121 14C0.849121 6.26801 7.11713 0 14.8491 0C22.5811 0 28.8491 6.26801 28.8491 14Z" fill="#00A6ED"/>
<path d="M14.8562 13.6406H9.50349H14.8562ZM9.35177 14.3274L8.46744 16.9133C7.9831 18.3296 7.74092 19.0377 7.91472 19.4737C8.06563 19.8525 8.38978 20.1395 8.78976 20.2489C9.25035 20.3747 9.94602 20.0682 11.3373 19.4554L20.2571 15.5262C21.6151 14.9279 22.2942 14.6289 22.504 14.2133C22.6863 13.8523 22.6863 13.4287 22.504 13.0677C22.2942 12.6523 21.6151 12.3531 20.2571 11.7549L11.322 7.81896C9.93482 7.20793 9.24126 6.90241 8.78113 7.02774C8.38153 7.13658 8.05741 7.42293 7.90597 7.80092C7.73158 8.23618 7.97116 8.94278 8.45034 10.356L9.35349 13.0196C9.43578 13.2623 9.47694 13.3837 9.49317 13.5078C9.50759 13.618 9.50744 13.7295 9.49274 13.8396C9.47617 13.9636 9.43471 14.0849 9.35177 14.3274Z" fill="#00A6ED"/>
<path d="M14.8562 13.6406H9.50349M9.35177 14.3274L8.46744 16.9133C7.9831 18.3296 7.74092 19.0377 7.91472 19.4737C8.06563 19.8525 8.38978 20.1395 8.78976 20.2489C9.25035 20.3747 9.94602 20.0682 11.3373 19.4554L20.2571 15.5262C21.6151 14.9279 22.2942 14.6289 22.504 14.2133C22.6863 13.8523 22.6863 13.4287 22.504 13.0677C22.2942 12.6523 21.6151 12.3531 20.2571 11.7549L11.322 7.81896C9.93482 7.20793 9.24126 6.90241 8.78113 7.02774C8.38153 7.13658 8.05741 7.42293 7.90597 7.80092C7.73158 8.23618 7.97116 8.94278 8.45034 10.356L9.35349 13.0196C9.43578 13.2623 9.47694 13.3837 9.49317 13.5078C9.50759 13.618 9.50744 13.7295 9.49274 13.8396C9.47617 13.9636 9.43471 14.0849 9.35177 14.3274Z" stroke="#EDF6F9" stroke-width="1.6" stroke-linecap="round" stroke-linejoin="round"/>
</svg>
