<svg width="77" height="77" viewBox="0 0 77 77" fill="none" xmlns="http://www.w3.org/2000/svg">
<g filter="url(#filter0_d_348_12)">
<rect x="9.34229" y="9.0365" width="59.1792" height="59.1792" rx="16" transform="rotate(-3.83 9.34229 9.0365)" fill="black"/>
</g>
<g filter="url(#filter1_d_348_12)">
<rect x="9.46973" y="8.90039" width="55.2339" height="55.2339" rx="6" transform="rotate(-3.83 9.46973 8.90039)" fill="white"/>
<rect x="6.80832" y="6.57296" width="60.2339" height="60.2339" rx="8.5" transform="rotate(-3.83 6.80832 6.57296)" stroke="black" stroke-width="5"/>
</g>
<g clip-path="url(#clip0_348_12)">
<path d="M62.1395 37.4783H57.3064L55.9545 28.6888C56.8256 29.2672 57.8697 29.6047 58.9919 29.6047C62.0294 29.6047 64.5002 27.1324 64.5002 24.0958C64.5002 21.0592 62.0294 18.5875 58.9919 18.5875C55.9545 18.5875 53.4837 21.0584 53.4837 24.0958C53.4837 24.734 53.5985 25.3446 53.7993 25.9152L50.7887 23.3374C50.1765 22.8133 49.3967 22.5277 48.5916 22.5277H37.746C36.4445 22.5277 35.3853 23.5868 35.3853 24.8885C35.3853 26.1901 36.4443 27.2492 37.746 27.2492H47.4884L39.2993 33.6804C37.8121 34.849 36.959 36.6028 36.959 38.4946C36.959 40.5877 38.0104 42.5123 39.7722 43.6454L47.0744 48.3392L40.9187 50.9044C40.3003 51.1618 39.814 51.6701 39.5841 52.298C39.3543 52.9276 39.3976 53.6303 39.7045 54.2267C40.1294 55.0513 40.9714 55.5314 41.8472 55.5314C42.1722 55.5314 42.5019 55.4652 42.8158 55.3261L51.3015 51.5804C52.6267 50.9635 53.4835 49.6187 53.4835 48.1551C53.4835 47.1589 53.0798 46.1846 52.3756 45.4821L47.5527 40.6586L52.0993 36.6792L52.4503 39.486C52.643 41.0322 53.9626 42.1999 55.5199 42.1999H62.1391C63.4406 42.1999 64.4999 41.1408 64.4999 39.8392C64.5002 38.5374 63.4411 37.4783 62.1395 37.4783ZM58.9919 20.1605C61.1613 20.1605 62.9264 21.9254 62.9264 24.095C62.9264 26.2645 61.1615 28.0295 58.9919 28.0295C56.8226 28.0295 55.0574 26.2645 55.0574 24.095C55.0574 21.9254 56.8226 20.1605 58.9919 20.1605ZM62.1395 40.6258H55.5203C54.7554 40.6258 54.107 40.0505 54.0118 39.2913L53.2933 33.5455L45.2497 40.5818L51.2631 46.5952C51.6747 47.0052 51.9099 47.5734 51.9099 48.1556C51.9099 49.0093 51.4095 49.7946 50.6509 50.1487L42.1792 53.8871C41.7763 54.0672 41.3041 53.8988 41.1027 53.5079C40.9949 53.2977 40.9806 53.0617 41.0611 52.8398C41.1421 52.6195 41.3058 52.448 41.523 52.3575L48.2107 49.5712C48.6491 49.3894 48.9474 48.9826 48.989 48.5098C49.0306 48.0369 48.8089 47.5836 48.4098 47.3278L40.6229 42.3215C39.3144 41.4788 38.533 40.0482 38.533 38.4925C38.533 37.0871 39.1672 35.7825 40.2719 34.9138L49.9458 27.3164L48.3012 25.6749H37.746C37.3124 25.6749 36.959 25.3224 36.959 24.888C36.959 24.4535 37.3124 24.101 37.746 24.101H48.5916C49.0212 24.101 49.4375 24.2521 49.764 24.5314L54.324 28.4422L55.956 39.0519H62.1393C62.5729 39.0519 62.9263 39.4044 62.9263 39.8388C62.9263 40.2733 62.5731 40.6258 62.1395 40.6258Z" fill="black"/>
<path d="M28.0815 53.6069C27.6865 54.0563 27.0216 54.1333 26.5361 53.787C26.2702 53.5973 26.1001 53.3141 26.0585 52.9906C26.0169 52.6665 26.1089 52.3509 26.3182 52.0999L36.7774 39.5491L35.5688 38.541L25.1087 51.0925C24.6232 51.6749 24.4005 52.4405 24.4973 53.1928C24.5942 53.945 25.0041 54.6289 25.6217 55.0695C26.1033 55.4126 26.658 55.5793 27.2096 55.5793C27.9714 55.5793 28.7259 55.2599 29.2649 54.6445L38.3377 44.286L37.1534 43.2489L28.0815 53.6069Z" fill="black"/>
<path d="M40.1064 28.8225H22.7949V30.3963H40.1064V28.8225Z" fill="black"/>
<path d="M22.2213 28.8225H19.0737V30.3963H22.2213V28.8225Z" fill="black"/>
<path d="M36.172 31.97H24.3687V33.5437H36.172V31.97Z" fill="black"/>
<path d="M22.795 31.97H19.6475V33.5437H22.795V31.97Z" fill="black"/>
<path d="M35.3853 35.1176H25.1558V36.6913H35.3853V35.1176Z" fill="black"/>
<path d="M23.5819 35.1176H21.2212V36.6913H23.5819V35.1176Z" fill="black"/>
<path d="M34.5983 25.6749H21.2212V27.2487H34.5983V25.6749Z" fill="black"/>
<path d="M19.6475 25.6749H16.5V27.2487H19.6475V25.6749Z" fill="black"/>
<path d="M34.5984 27.2487H18.0737V28.8224H34.5984V27.2487Z" fill="#F9BA48"/>
<path d="M40.1064 30.3962H19.6475V31.97H40.1064V30.3962Z" fill="#F9BA48"/>
<path d="M36.1721 33.5438H21.2212V35.1176H36.1721V33.5438Z" fill="#F9BA48"/>
<path d="M35.3851 36.6913H22.7949V38.2651H35.3851V36.6913Z" fill="#F9BA48"/>
</g>
<defs>
<filter id="filter0_d_348_12" x="6.37451" y="6.11597" width="68.9355" height="68.9352" filterUnits="userSpaceOnUse" color-interpolation-filters="sRGB">
<feFlood flood-opacity="0" result="BackgroundImageFix"/>
<feColorMatrix in="SourceAlpha" type="matrix" values="0 0 0 0 0 0 0 0 0 0 0 0 0 0 0 0 0 0 127 0" result="hardAlpha"/>
<feOffset dy="4"/>
<feGaussianBlur stdDeviation="2"/>
<feComposite in2="hardAlpha" operator="out"/>
<feColorMatrix type="matrix" values="0 0 0 0 0 0 0 0 0 0 0 0 0 0 0 0 0 0 0.25 0"/>
<feBlend mode="normal" in2="BackgroundImageFix" result="effect1_dropShadow_348_12"/>
<feBlend mode="normal" in="SourceGraphic" in2="effect1_dropShadow_348_12" result="shape"/>
</filter>
<filter id="filter1_d_348_12" x="0.856445" y="0.5979" width="76.0264" height="76.0261" filterUnits="userSpaceOnUse" color-interpolation-filters="sRGB">
<feFlood flood-opacity="0" result="BackgroundImageFix"/>
<feColorMatrix in="SourceAlpha" type="matrix" values="0 0 0 0 0 0 0 0 0 0 0 0 0 0 0 0 0 0 127 0" result="hardAlpha"/>
<feOffset dy="4"/>
<feGaussianBlur stdDeviation="2"/>
<feComposite in2="hardAlpha" operator="out"/>
<feColorMatrix type="matrix" values="0 0 0 0 0 0 0 0 0 0 0 0 0 0 0 0 0 0 0.25 0"/>
<feBlend mode="normal" in2="BackgroundImageFix" result="effect1_dropShadow_348_12"/>
<feBlend mode="normal" in="SourceGraphic" in2="effect1_dropShadow_348_12" result="shape"/>
</filter>
<clipPath id="clip0_348_12">
<rect width="48" height="48" fill="white" transform="translate(16.5 13.0835)"/>
</clipPath>
</defs>
</svg>
