<svg width="60" height="60" viewBox="0 0 60 60" fill="none" xmlns="http://www.w3.org/2000/svg">
<path d="M57.775 59.9789H2.22C0.994999 59.9789 0 58.9842 0 57.7597V2.21922C0 0.99465 0.994999 0 2.22 0H57.775C59 0 59.995 0.99465 59.995 2.21922V57.7597C59.995 58.9842 59 59.9789 57.775 59.9789Z" fill="#E0E0E0"/>
<path d="M17.8249 6.97361H0.954882C0.702927 6.97361 0.461291 6.87356 0.283131 6.69546C0.104972 6.51736 0.00488281 6.27581 0.00488281 6.02395V1.66048C0.00488281 1.13567 0.429882 0.710815 0.954882 0.710815H17.8249C18.3499 0.710815 18.7749 1.13567 18.7749 1.66048V6.01895C18.7749 6.54376 18.3499 6.97361 17.8249 6.97361Z" fill="#751C00"/>
<path d="M38.4346 6.97361H21.5696C21.3177 6.97361 21.076 6.87356 20.8979 6.69546C20.7197 6.51736 20.6196 6.27581 20.6196 6.02395V1.66048C20.6196 1.13567 21.0446 0.710815 21.5696 0.710815H38.4396C38.9646 0.710815 39.3896 1.13567 39.3896 1.66048V6.01895C39.3879 6.27161 39.2868 6.51345 39.108 6.69212C38.9293 6.87078 38.6874 6.97191 38.4346 6.97361Z" fill="#751C00"/>
<path d="M59.05 6.97361H42.18C41.928 6.97361 41.6864 6.87356 41.5082 6.69546C41.3301 6.51736 41.23 6.27581 41.23 6.02395V1.66048C41.23 1.13567 41.655 0.710815 42.18 0.710815H59.05C59.575 0.710815 60 1.13567 60 1.66048V6.01895C60 6.54376 59.575 6.97361 59.05 6.97361Z" fill="#751C00"/>
<path d="M17.8249 24.6474H0.954882C0.702927 24.6474 0.461291 24.5474 0.283131 24.3693C0.104972 24.1912 0.00488281 23.9496 0.00488281 23.6978V19.3393C0.00488281 18.8145 0.429882 18.3896 0.954882 18.3896H17.8249C18.3499 18.3896 18.7749 18.8145 18.7749 19.3393V23.6978C18.7749 23.9496 18.6748 24.1912 18.4966 24.3693C18.3185 24.5474 18.0768 24.6474 17.8249 24.6474Z" fill="#751C00"/>
<path d="M38.4346 24.6474H21.5696C21.3177 24.6474 21.076 24.5474 20.8979 24.3693C20.7197 24.1912 20.6196 23.9496 20.6196 23.6978V19.3393C20.6196 18.8145 21.0446 18.3896 21.5696 18.3896H38.4396C38.9646 18.3896 39.3896 18.8145 39.3896 19.3393V23.6978C39.3846 24.2226 38.9596 24.6474 38.4346 24.6474Z" fill="#751C00"/>
<path d="M59.05 24.6474H42.18C41.928 24.6474 41.6864 24.5474 41.5082 24.3693C41.3301 24.1912 41.23 23.9496 41.23 23.6978V19.3393C41.23 18.8145 41.655 18.3896 42.18 18.3896H59.05C59.575 18.3896 60 18.8145 60 19.3393V23.6978C60 23.9496 59.8999 24.1912 59.7217 24.3693C59.5436 24.5474 59.3019 24.6474 59.05 24.6474Z" fill="#751C00"/>
<path d="M17.8249 42.3262H0.954882C0.702927 42.3262 0.461291 42.2261 0.283131 42.048C0.104972 41.8699 0.00488281 41.6284 0.00488281 41.3765V37.018C0.00488281 36.4932 0.429882 36.0684 0.954882 36.0684H17.8249C18.3499 36.0684 18.7749 36.4932 18.7749 37.018V41.3765C18.7749 41.8963 18.3499 42.3262 17.8249 42.3262Z" fill="#751C00"/>
<path d="M38.4346 42.3262H21.5696C21.3177 42.3262 21.076 42.2261 20.8979 42.048C20.7197 41.8699 20.6196 41.6284 20.6196 41.3765V37.018C20.6196 36.4932 21.0446 36.0684 21.5696 36.0684H38.4396C38.9646 36.0684 39.3896 36.4932 39.3896 37.018V41.3765C39.387 41.6284 39.2854 41.8692 39.1067 42.0469C38.928 42.2245 38.6866 42.3249 38.4346 42.3262Z" fill="#751C00"/>
<path d="M59.05 42.3262H42.18C41.928 42.3262 41.6864 42.2261 41.5082 42.048C41.3301 41.8699 41.23 41.6284 41.23 41.3765V37.018C41.23 36.4932 41.655 36.0684 42.18 36.0684H59.05C59.575 36.0684 60 36.4932 60 37.018V41.3765C60 41.8963 59.575 42.3262 59.05 42.3262Z" fill="#751C00"/>
<path d="M17.8249 60H0.954882C0.702927 60 0.461291 59.8999 0.283131 59.7218C0.104972 59.5437 0.00488281 59.3022 0.00488281 59.0503V54.6919C0.00488281 54.167 0.429882 53.7422 0.954882 53.7422H17.8249C18.3499 53.7422 18.7749 54.167 18.7749 54.6919V59.0503C18.7749 59.3022 18.6748 59.5437 18.4966 59.7218C18.3185 59.8999 18.0768 60 17.8249 60Z" fill="#751C00"/>
<path d="M38.4346 60H21.5696C21.3177 60 21.076 59.8999 20.8979 59.7218C20.7197 59.5437 20.6196 59.3022 20.6196 59.0503V54.6919C20.6196 54.167 21.0446 53.7422 21.5696 53.7422H38.4396C38.9646 53.7422 39.3896 54.167 39.3896 54.6919V59.0503C39.3846 59.5751 38.9596 60 38.4346 60Z" fill="#751C00"/>
<path d="M59.05 60H42.18C41.928 60 41.6864 59.8999 41.5082 59.7218C41.3301 59.5437 41.23 59.3022 41.23 59.0503V54.6919C41.23 54.167 41.655 53.7422 42.18 53.7422H59.05C59.575 53.7422 60 54.167 60 54.6919V59.0503C60 59.3022 59.8999 59.5437 59.7217 59.7218C59.5436 59.8999 59.3019 60 59.05 60Z" fill="#751C00"/>
<path d="M7.76 9.54773H0V15.8105H7.76C8.01195 15.8105 8.25359 15.7105 8.43175 15.5324C8.60991 15.3543 8.71 15.1127 8.71 14.8609V10.5024C8.71 9.97258 8.285 9.54773 7.76 9.54773Z" fill="#751C00"/>
<path d="M28.21 15.8107H11.345C11.0931 15.8107 10.8514 15.7106 10.6733 15.5325C10.4951 15.3544 10.395 15.1129 10.395 14.861V10.5025C10.395 9.97771 10.82 9.55286 11.345 9.55286H28.215C28.74 9.55286 29.165 9.97771 29.165 10.5025V14.861C29.16 15.3858 28.735 15.8107 28.21 15.8107Z" fill="#751C00"/>
<path d="M48.6597 15.8107H31.7947C31.67 15.8107 31.5464 15.7861 31.4312 15.7384C31.3159 15.6906 31.2112 15.6207 31.123 15.5325C31.0348 15.4443 30.9648 15.3396 30.917 15.2244C30.8693 15.1092 30.8447 14.9857 30.8447 14.861V10.5025C30.8447 9.97771 31.2697 9.55286 31.7947 9.55286H48.6647C49.1897 9.55286 49.6147 9.97771 49.6147 10.5025V14.861C49.6097 15.3858 49.1847 15.8107 48.6597 15.8107Z" fill="#751C00"/>
<path d="M52.2449 9.54773C51.993 9.54773 51.7513 9.64778 51.5732 9.82588C51.395 10.004 51.2949 10.2455 51.2949 10.4974V14.8559C51.2949 15.3807 51.7199 15.8055 52.2449 15.8055H59.9999V9.54773H52.2449Z" fill="#751C00"/>
<path d="M7.76 27.2266H0V33.4894H7.76C8.01195 33.4894 8.25359 33.3893 8.43175 33.2112C8.60991 33.0331 8.71 32.7916 8.71 32.5397V28.1812C8.71 27.6514 8.285 27.2266 7.76 27.2266Z" fill="#751C00"/>
<path d="M28.21 33.4844H11.345C11.0931 33.4844 10.8514 33.3843 10.6733 33.2062C10.4951 33.0281 10.395 32.7866 10.395 32.5347V28.1762C10.395 27.6514 10.82 27.2266 11.345 27.2266H28.215C28.74 27.2266 29.165 27.6514 29.165 28.1762V32.5347C29.16 33.0595 28.735 33.4844 28.21 33.4844Z" fill="#751C00"/>
<path d="M48.6597 33.4844H31.7947C31.67 33.4844 31.5464 33.4598 31.4312 33.4121C31.3159 33.3643 31.2112 33.2944 31.123 33.2062C31.0348 33.118 30.9648 33.0133 30.917 32.8981C30.8693 32.7829 30.8447 32.6594 30.8447 32.5347V28.1762C30.8447 27.6514 31.2697 27.2266 31.7947 27.2266H48.6647C49.1897 27.2266 49.6147 27.6514 49.6147 28.1762V32.5347C49.6097 33.0595 49.1847 33.4844 48.6597 33.4844Z" fill="#751C00"/>
<path d="M52.2449 27.2266C51.993 27.2266 51.7513 27.3266 51.5732 27.5047C51.395 27.6828 51.2949 27.9244 51.2949 28.1762V32.5347C51.2949 33.0595 51.7199 33.4844 52.2449 33.4844H59.9999V27.2266H52.2449Z" fill="#751C00"/>
<path d="M7.76 44.9003H0V51.1631H7.76C7.88475 51.1631 8.00829 51.1385 8.12354 51.0908C8.2388 51.043 8.34353 50.9731 8.43175 50.8849C8.51996 50.7967 8.58994 50.692 8.63768 50.5768C8.68542 50.4616 8.71 50.3381 8.71 50.2134V45.8549C8.71 45.3251 8.285 44.9003 7.76 44.9003Z" fill="#751C00"/>
<path d="M28.21 51.1631H11.345C11.0931 51.1631 10.8514 51.063 10.6733 50.8849C10.4951 50.7068 10.395 50.4653 10.395 50.2134V45.8549C10.395 45.3301 10.82 44.9053 11.345 44.9053H28.215C28.74 44.9053 29.165 45.3301 29.165 45.8549V50.2134C29.16 50.7382 28.735 51.1631 28.21 51.1631Z" fill="#751C00"/>
<path d="M48.6597 51.1631H31.7947C31.67 51.1631 31.5464 51.1385 31.4312 51.0908C31.3159 51.0431 31.2112 50.9731 31.123 50.8849C31.0348 50.7967 30.9648 50.692 30.917 50.5768C30.8693 50.4616 30.8447 50.3381 30.8447 50.2134V45.8549C30.8447 45.3301 31.2697 44.9053 31.7947 44.9053H48.6647C49.1897 44.9053 49.6147 45.3301 49.6147 45.8549V50.2134C49.6097 50.7382 49.1847 51.1631 48.6597 51.1631Z" fill="#751C00"/>
<path d="M52.2449 44.9003C51.993 44.9003 51.7513 45.0003 51.5732 45.1784C51.395 45.3565 51.2949 45.5981 51.2949 45.8499V50.2084C51.2949 50.7332 51.7199 51.1581 52.2449 51.1581H59.9999V44.9003H52.2449Z" fill="#751C00"/>
<path d="M17.8249 6.97361H0.954882C0.702927 6.97361 0.461291 6.87356 0.283131 6.69546C0.104972 6.51736 0.00488281 6.27581 0.00488281 6.02395V1.66048C0.00488281 1.13567 0.429882 0.710815 0.954882 0.710815H17.8249C18.3499 0.710815 18.7749 1.13567 18.7749 1.66048V6.01895C18.7749 6.54376 18.3499 6.97361 17.8249 6.97361Z" fill="#E04E2C"/>
<path d="M38.4351 6.97361H21.5701C21.3182 6.97361 21.0765 6.87356 20.8984 6.69546C20.7202 6.51736 20.6201 6.27581 20.6201 6.02395V1.66048C20.6201 1.13567 21.0451 0.710815 21.5701 0.710815H38.4401C38.9651 0.710815 39.3901 1.13567 39.3901 1.66048V6.01895C39.3884 6.27161 39.2872 6.51345 39.1085 6.69212C38.9298 6.87078 38.6879 6.97191 38.4351 6.97361Z" fill="#BF360C"/>
<path d="M59.05 6.97361H42.18C41.928 6.97361 41.6864 6.87356 41.5082 6.69546C41.3301 6.51736 41.23 6.27581 41.23 6.02395V1.66048C41.23 1.13567 41.655 0.710815 42.18 0.710815H59.05C59.575 0.710815 60 1.13567 60 1.66048V6.01895C60 6.54376 59.575 6.97361 59.05 6.97361Z" fill="#E04E2C"/>
<path d="M17.8249 24.6474H0.954882C0.702927 24.6474 0.461291 24.5474 0.283131 24.3693C0.104972 24.1912 0.00488281 23.9496 0.00488281 23.6978V19.3393C0.00488281 18.8145 0.429882 18.3896 0.954882 18.3896H17.8249C18.3499 18.3896 18.7749 18.8145 18.7749 19.3393V23.6978C18.7749 23.9496 18.6748 24.1912 18.4966 24.3693C18.3185 24.5474 18.0768 24.6474 17.8249 24.6474Z" fill="#E04E2C"/>
<path d="M38.4351 24.6474H21.5701C21.3182 24.6474 21.0765 24.5474 20.8984 24.3693C20.7202 24.1912 20.6201 23.9496 20.6201 23.6978V19.3393C20.6201 18.8145 21.0451 18.3896 21.5701 18.3896H38.4401C38.9651 18.3896 39.3901 18.8145 39.3901 19.3393V23.6978C39.3851 24.2226 38.9601 24.6474 38.4351 24.6474Z" fill="#E04E2C"/>
<path d="M59.05 24.6474H42.18C41.928 24.6474 41.6864 24.5474 41.5082 24.3693C41.3301 24.1912 41.23 23.9496 41.23 23.6978V19.3393C41.23 18.8145 41.655 18.3896 42.18 18.3896H59.05C59.575 18.3896 60 18.8145 60 19.3393V23.6978C60 23.9496 59.8999 24.1912 59.7217 24.3693C59.5436 24.5474 59.3019 24.6474 59.05 24.6474Z" fill="#BF360C"/>
<path d="M17.8249 42.3262H0.954882C0.702927 42.3262 0.461291 42.2261 0.283131 42.048C0.104972 41.8699 0.00488281 41.6284 0.00488281 41.3765V37.018C0.00488281 36.4932 0.429882 36.0684 0.954882 36.0684H17.8249C18.3499 36.0684 18.7749 36.4932 18.7749 37.018V41.3765C18.7749 41.8963 18.3499 42.3262 17.8249 42.3262Z" fill="#E04E2C"/>
<path d="M38.4351 42.3262H21.5701C21.3182 42.3262 21.0765 42.2261 20.8984 42.048C20.7202 41.8699 20.6201 41.6284 20.6201 41.3765V37.018C20.6201 36.4932 21.0451 36.0684 21.5701 36.0684H38.4401C38.9651 36.0684 39.3901 36.4932 39.3901 37.018V41.3765C39.3875 41.6284 39.2859 41.8692 39.1072 42.0469C38.9285 42.2245 38.6871 42.3249 38.4351 42.3262Z" fill="#BF360C"/>
<path d="M59.05 42.3262H42.18C41.928 42.3262 41.6864 42.2261 41.5082 42.048C41.3301 41.8699 41.23 41.6284 41.23 41.3765V37.018C41.23 36.4932 41.655 36.0684 42.18 36.0684H59.05C59.575 36.0684 60 36.4932 60 37.018V41.3765C60 41.8963 59.575 42.3262 59.05 42.3262Z" fill="#E04E2C"/>
<path d="M17.8249 60H0.954882C0.830126 60 0.706592 59.9754 0.591333 59.9277C0.476074 59.88 0.371347 59.81 0.283131 59.7218C0.194916 59.6336 0.124939 59.529 0.077197 59.4137C0.0294551 59.2985 0.00488281 59.175 0.00488281 59.0503V54.6919C0.00488281 54.167 0.429882 53.7422 0.954882 53.7422H17.8249C18.3499 53.7422 18.7749 54.167 18.7749 54.6919V59.0503C18.7749 59.175 18.7503 59.2985 18.7026 59.4137C18.6548 59.529 18.5848 59.6336 18.4966 59.7218C18.4084 59.81 18.3037 59.88 18.1884 59.9277C18.0732 59.9754 17.9496 60 17.8249 60Z" fill="#E04E2C"/>
<path d="M38.4346 60H21.5696C21.4449 60 21.3213 59.9754 21.2061 59.9277C21.0908 59.88 20.9861 59.81 20.8979 59.7218C20.8097 59.6336 20.7397 59.529 20.6919 59.4137C20.6442 59.2985 20.6196 59.175 20.6196 59.0503V54.6919C20.6196 54.167 21.0446 53.7422 21.5696 53.7422H38.4396C38.9646 53.7422 39.3896 54.167 39.3896 54.6919V59.0503C39.3846 59.5751 38.9596 60 38.4346 60Z" fill="#E04E2C"/>
<path d="M59.05 60H42.18C42.0552 60 41.9317 59.9754 41.8164 59.9277C41.7012 59.88 41.5964 59.81 41.5082 59.7218C41.42 59.6336 41.35 59.529 41.3023 59.4137C41.2546 59.2985 41.23 59.175 41.23 59.0503V54.6919C41.23 54.167 41.655 53.7422 42.18 53.7422H59.05C59.575 53.7422 60 54.167 60 54.6919V59.0503C60 59.175 59.9754 59.2985 59.9277 59.4137C59.8799 59.529 59.8099 59.6336 59.7217 59.7218C59.6335 59.81 59.5288 59.88 59.4135 59.9277C59.2983 59.9754 59.1747 60 59.05 60Z" fill="#BF360C"/>
<path d="M7.76 9.54773H0V15.8105H7.76C8.01195 15.8105 8.25359 15.7105 8.43175 15.5324C8.60991 15.3543 8.71 15.1127 8.71 14.8609V10.5024C8.71 9.97258 8.285 9.54773 7.76 9.54773Z" fill="#BF360C"/>
<path d="M28.21 15.8107H11.345C11.0931 15.8107 10.8514 15.7106 10.6733 15.5325C10.4951 15.3544 10.395 15.1129 10.395 14.861V10.5025C10.395 9.97771 10.82 9.55286 11.345 9.55286H28.215C28.74 9.55286 29.165 9.97771 29.165 10.5025V14.861C29.16 15.3858 28.735 15.8107 28.21 15.8107Z" fill="#E04E2C"/>
<path d="M48.6597 15.8107H31.7947C31.67 15.8107 31.5464 15.7861 31.4312 15.7384C31.3159 15.6906 31.2112 15.6207 31.123 15.5325C31.0348 15.4443 30.9648 15.3396 30.917 15.2244C30.8693 15.1092 30.8447 14.9857 30.8447 14.861V10.5025C30.8447 9.97771 31.2697 9.55286 31.7947 9.55286H48.6647C49.1897 9.55286 49.6147 9.97771 49.6147 10.5025V14.861C49.6097 15.3858 49.1847 15.8107 48.6597 15.8107Z" fill="#FF7043"/>
<path d="M52.2449 9.54773C51.993 9.54773 51.7513 9.64778 51.5732 9.82588C51.395 10.004 51.2949 10.2455 51.2949 10.4974V14.8559C51.2949 15.3807 51.7199 15.8055 52.2449 15.8055H59.9999V9.54773H52.2449Z" fill="#E04E2C"/>
<path d="M7.76 27.2266H0V33.4894H7.76C7.88475 33.4894 8.00829 33.4648 8.12354 33.4171C8.2388 33.3693 8.34353 33.2994 8.43175 33.2112C8.51996 33.123 8.58994 33.0183 8.63768 32.9031C8.68542 32.7879 8.71 32.6644 8.71 32.5397V28.1812C8.71 27.6514 8.285 27.2266 7.76 27.2266Z" fill="#E04E2C"/>
<path d="M28.21 33.4844H11.345C11.0931 33.4844 10.8514 33.3843 10.6733 33.2062C10.4951 33.0281 10.395 32.7866 10.395 32.5347V28.1762C10.395 27.6514 10.82 27.2266 11.345 27.2266H28.215C28.74 27.2266 29.165 27.6514 29.165 28.1762V32.5347C29.16 33.0595 28.735 33.4844 28.21 33.4844Z" fill="#FF7043"/>
<path d="M48.6597 33.4844H31.7947C31.67 33.4844 31.5464 33.4598 31.4312 33.4121C31.3159 33.3643 31.2112 33.2944 31.123 33.2062C31.0348 33.118 30.9648 33.0133 30.917 32.8981C30.8693 32.7829 30.8447 32.6594 30.8447 32.5347V28.1762C30.8447 27.6514 31.2697 27.2266 31.7947 27.2266H48.6647C49.1897 27.2266 49.6147 27.6514 49.6147 28.1762V32.5347C49.6097 33.0595 49.1847 33.4844 48.6597 33.4844Z" fill="#E04E2C"/>
<path d="M52.2449 27.2266C51.993 27.2266 51.7513 27.3266 51.5732 27.5047C51.395 27.6828 51.2949 27.9244 51.2949 28.1762V32.5347C51.2949 33.0595 51.7199 33.4844 52.2449 33.4844H59.9999V27.2266H52.2449Z" fill="#E04E2C"/>
<path d="M7.76 44.9004H0V51.1632H7.76C7.88475 51.1632 8.00829 51.1386 8.12354 51.0909C8.2388 51.0432 8.34353 50.9732 8.43175 50.885C8.51996 50.7968 8.58994 50.6922 8.63768 50.5769C8.68542 50.4617 8.71 50.3382 8.71 50.2135V45.8551C8.71 45.3252 8.285 44.9004 7.76 44.9004Z" fill="#BF360C"/>
<path d="M28.21 51.1632H11.345C11.2203 51.1632 11.0967 51.1386 10.9815 51.0909C10.8662 51.0432 10.7615 50.9732 10.6733 50.885C10.5851 50.7969 10.5151 50.6922 10.4673 50.577C10.4196 50.4617 10.395 50.3382 10.395 50.2135V45.8551C10.395 45.3302 10.82 44.9054 11.345 44.9054H28.215C28.74 44.9054 29.165 45.3302 29.165 45.8551V50.2135C29.16 50.7383 28.735 51.1632 28.21 51.1632Z" fill="#E04E2C"/>
<path d="M48.6597 51.1632H31.7947C31.67 51.1632 31.5464 51.1386 31.4312 51.0909C31.3159 51.0432 31.2112 50.9732 31.123 50.885C31.0348 50.7969 30.9648 50.6922 30.917 50.577C30.8693 50.4617 30.8447 50.3382 30.8447 50.2135V45.8551C30.8447 45.3302 31.2697 44.9054 31.7947 44.9054H48.6647C49.1897 44.9054 49.6147 45.3302 49.6147 45.8551V50.2135C49.6097 50.7383 49.1847 51.1632 48.6597 51.1632Z" fill="#E04E2C"/>
<path d="M52.2449 44.9004C51.993 44.9004 51.7513 45.0004 51.5732 45.1785C51.395 45.3566 51.2949 45.5982 51.2949 45.8501V50.2085C51.2949 50.7333 51.7199 51.1582 52.2449 51.1582H59.9999V44.9004H52.2449Z" fill="#FF7043"/>
</svg>
