<svg width="1282" height="140" viewBox="0 0 1282 140" fill="none" xmlns="http://www.w3.org/2000/svg">
<rect x="0.175781" width="2.79847" height="27.4251" fill="#434343"/>
<rect x="1.5752" y="2.79846" width="2.79847" height="27.4251" transform="rotate(-90 1.5752 2.79846)" fill="#434343"/>
<rect x="0.175781" y="139.084" width="2.79847" height="27.4251" transform="rotate(-90 0.175781 139.084)" fill="#434343"/>
<rect x="2.97461" y="137.685" width="2.79847" height="27.4251" transform="rotate(-180 2.97461 137.685)" fill="#434343"/>
<path d="M54.5 95.0422V69.5422H46V61.0422H37.5V35.5422H54.5V61.0422H71.5V35.5422H88.5V61.0422H80V69.5422H71.5V95.0422H54.5ZM105.5 95.0422V86.5422H97V44.0422H105.5V35.5422H148V44.0422H156.5V86.5422H148V95.0422H105.5ZM114 86.5422H139.5V44.0422H114V86.5422ZM173.5 95.0422V86.5422H165V35.5422H182V86.5422H207.5V35.5422H224.5V86.5422H216V95.0422H173.5ZM301 95.0422V52.5422H309.5V44.0422H318V35.5422H343.5V44.0422H352V52.5422H360.5V95.0422H343.5V78.0422H318V95.0422H301ZM318 69.5422H343.5V52.5422H335V44.0422H326.5V52.5422H318V69.5422ZM369 95.0422V35.5422H420V44.0422H428.5V69.5422H411.5V78.0422H420V86.5422H428.5V95.0422H403V86.5422H394.5V78.0422H386V95.0422H369ZM386 69.5422H403V61.0422H411.5V44.0422H386V69.5422ZM437 95.0422V35.5422H496.5V44.0422H454V61.0422H488V69.5422H454V86.5422H496.5V95.0422H437ZM598.5 95.0422V44.0422H581.5V35.5422H632.5V44.0422H615.5V95.0422H598.5ZM641 95.0422V35.5422H658V61.0422H683.5V35.5422H700.5V95.0422H683.5V69.5422H658V95.0422H641ZM709 95.0422V35.5422H768.5V44.0422H726V61.0422H760V69.5422H726V86.5422H768.5V95.0422H709ZM853.5 95.0422V86.5422H845V35.5422H862V69.5422H870.5V35.5422H879V69.5422H887.5V35.5422H904.5V86.5422H896V95.0422H887.5V86.5422H879V78.0422H870.5V86.5422H862V95.0422H853.5ZM921.5 95.0422V86.5422H938.5V44.0422H921.5V35.5422H972.5V44.0422H955.5V86.5422H972.5V95.0422H921.5ZM981 95.0422V35.5422H998V44.0422H1006.5V52.5422H1015V61.0422H1023.5V35.5422H1040.5V95.0422H1023.5V78.0422H1015V69.5422H1006.5V61.0422H998V95.0422H981ZM1049 95.0422V35.5422H1066V44.0422H1074.5V52.5422H1083V61.0422H1091.5V35.5422H1108.5V95.0422H1091.5V78.0422H1083V69.5422H1074.5V61.0422H1066V95.0422H1049ZM1117 95.0422V35.5422H1176.5V44.0422H1134V61.0422H1168V69.5422H1134V86.5422H1176.5V95.0422H1117ZM1185 95.0422V35.5422H1236V44.0422H1244.5V69.5422H1227.5V78.0422H1236V86.5422H1244.5V95.0422H1219V86.5422H1210.5V78.0422H1202V95.0422H1185ZM1202 69.5422H1219V61.0422H1227.5V44.0422H1202V69.5422Z" fill="black"/>
<rect x="1281.82" width="2.79847" height="27.4251" transform="rotate(90 1281.82 0)" fill="#434343"/>
<rect x="1279.03" y="1.39929" width="2.79847" height="27.4251" fill="#434343"/>
<rect x="1281.82" y="139.084" width="2.79847" height="27.4251" transform="rotate(-180 1281.82 139.084)" fill="#434343"/>
<rect x="1280.42" y="136.286" width="2.79847" height="27.4251" transform="rotate(90 1280.42 136.286)" fill="#434343"/>
</svg>
